<svg xmlns="http://www.w3.org/2000/svg" viewBox="0 0 304.98 304.98"><defs><style>.a{fill:#fff;}.b{fill:#e60023;}</style></defs><path class="a" d="M305,152.49A152.49,152.49,0,1,1,152.49,0,152.49,152.49,0,0,1,305,152.49"/><path class="b" d="M152.49,0A152.52,152.52,0,0,0,96.92,294.54c-1.33-12.07-2.54-30.62.53-43.79,2.77-11.9,17.88-75.8,17.88-75.8a55.1,55.1,0,0,1-4.56-22.64c0-21.2,12.29-37,27.59-37,13,0,19.29,9.76,19.29,21.47,0,13.09-8.33,32.65-12.62,50.78-3.6,15.18,7.61,27.55,22.58,27.55,27.1,0,47.93-28.57,47.93-69.83,0-36.51-26.23-62-63.69-62C108.46,83.22,83,115.76,83,149.39c0,13.11,5.05,27.16,11.35,34.8a4.56,4.56,0,0,1,1.06,4.38c-1.16,4.81-3.73,15.17-4.24,17.29-.66,2.79-2.21,3.38-5.1,2C67,199,55.11,171.19,55.11,148.82c0-48.1,35-92.28,100.76-92.28,52.89,0,94,37.7,94,88.08,0,52.55-33.13,94.84-79.13,94.84-15.45,0-30-8-35-17.51,0,0-7.64,29.12-9.5,36.25-3.44,13.25-12.73,29.85-19,40A152.51,152.51,0,1,0,152.49,0"/></svg>