<?xml version="1.0" encoding="utf-8"?>
<!-- Generator: Adobe Illustrator 23.0.1, SVG Export Plug-In . SVG Version: 6.00 Build 0)  -->
<!DOCTYPE svg PUBLIC "-//W3C//DTD SVG 1.1//EN" "http://www.w3.org/Graphics/SVG/1.1/DTD/svg11.dtd" [
	<!ENTITY ns_extend "http://ns.adobe.com/Extensibility/1.0/">
	<!ENTITY ns_ai "http://ns.adobe.com/AdobeIllustrator/10.0/">
	<!ENTITY ns_graphs "http://ns.adobe.com/Graphs/1.0/">
	<!ENTITY ns_vars "http://ns.adobe.com/Variables/1.0/">
	<!ENTITY ns_imrep "http://ns.adobe.com/ImageReplacement/1.0/">
	<!ENTITY ns_sfw "http://ns.adobe.com/SaveForWeb/1.0/">
	<!ENTITY ns_custom "http://ns.adobe.com/GenericCustomNamespace/1.0/">
	<!ENTITY ns_adobe_xpath "http://ns.adobe.com/XPath/1.0/">
]>
<svg version="1.1" id="logo_x5F_news_x5F_192px" xmlns:x="&ns_extend;" xmlns:i="&ns_ai;" xmlns:graph="&ns_graphs;"
	 xmlns="http://www.w3.org/2000/svg" xmlns:xlink="http://www.w3.org/1999/xlink" x="0px" y="0px" viewBox="0 0 6550.8 5359.7"
	 enable-background="new 0 0 6550.8 5359.7" xml:space="preserve">
<metadata>
	<sfw  xmlns="&ns_sfw;">
		<slices></slices>
		<sliceSourceBounds  bottomLeftOrigin="true" height="5359.7" width="6550.8" x="-3408.4" y="-2775.9"></sliceSourceBounds>
	</sfw>
</metadata>
<g>
	<path fill="#0C9D58" d="M5210.8,3635.7c0,91.2-75.2,165.9-167.1,165.9H1507c-91.9,0-167.1-74.7-167.1-165.9V165.9
		C1339.9,74.7,1415.1,0,1507,0h3536.8c91.9,0,167.1,74.7,167.1,165.9V3635.7z"/>
	<polygon opacity="0.2" fill="#004D40" points="5210.8,892 3885.3,721.4 5210.8,1077 	"/>
	<path opacity="0.2" fill="#004D40" d="M3339.3,180.9L1332,1077.2l2218.5-807.5v-2.2C3511.5,183.9,3416.5,144.9,3339.3,180.9z"/>
	<path opacity="0.2" fill="#FFFFFF" d="M5043.8,0H1507c-91.9,0-167.1,74.7-167.1,165.9v37.2c0-91.2,75.2-165.9,167.1-165.9h3536.8
		c91.9,0,167.1,74.7,167.1,165.9v-37.2C5210.8,74.7,5135.7,0,5043.8,0z"/>
	<path fill="#EA4335" d="M2198.2,3529.1c-23.9,89.1,23.8,180,106,202l3275.8,881c82.2,22,169-32.9,192.8-122l771.7-2880
		c23.9-89.1-23.8-180-106-202l-3275.8-881c-82.2-22-169,32.9-192.8,122L2198.2,3529.1z"/>
	<polygon opacity="0.2" fill="#3E2723" points="5806.4,2638.1 5978.7,3684.8 5806.4,4328.1 	"/>
	<polygon opacity="0.2" fill="#3E2723" points="3900.8,764.1 4055.2,805.6 4151,1451.6 	"/>
	<path opacity="0.2" fill="#FFFFFF" d="M6438.6,1408.1l-3275.8-881c-82.2-22-169,32.9-192.8,122l-771.7,2880
		c-1.3,4.8-1.6,9.7-2.5,14.5l765.9-2858.2c23.9-89.1,110.7-144,192.8-122l3275.8,881c77.7,20.8,123.8,103.3,108.5,187.6l5.9-21.9
		C6568.5,1521,6520.8,1430.1,6438.6,1408.1z"/>
	<path fill="#FFC107" d="M4778.1,3174.4c31.5,86.7-8.1,181.4-88,210.5L1233.4,4643c-80,29.1-171.2-18-202.7-104.7L10.9,1736.5
		c-31.5-86.7,8.1-181.4,88-210.5L3555.6,267.9c80-29.1,171.2,18,202.7,104.7L4778.1,3174.4z"/>
	<path opacity="0.2" fill="#FFFFFF" d="M24,1771.8c-31.5-86.7,8.1-181.4,88-210.5L3568.7,303.1c79.1-28.8,169,17.1,201.5,102
		l-11.9-32.6c-31.6-86.7-122.8-133.8-202.7-104.7L98.9,1526c-80,29.1-119.6,123.8-88,210.5l1019.8,2801.8c0.3,0.9,0.9,1.7,1.3,2.7
		L24,1771.8z"/>
	<path fill="#4285F4" d="M5806.4,5192.2c0,92.1-75.4,167.5-167.5,167.5h-4727c-92.1,0-167.5-75.4-167.5-167.5V1619.1
		c0-92.1,75.4-167.5,167.5-167.5h4727c92.1,0,167.5,75.4,167.5,167.5V5192.2z"/>
	<path fill="#FFFFFF" d="M4903.8,2866H3489.4v-372.2h1414.4c41.1,0,74.4,33.3,74.4,74.4v223.3
		C4978.2,2832.6,4944.9,2866,4903.8,2866z"/>
	<path fill="#FFFFFF" d="M4903.8,4280.3H3489.4v-372.2h1414.4c41.1,0,74.4,33.3,74.4,74.4v223.3
		C4978.2,4247,4944.9,4280.3,4903.8,4280.3z"/>
	<path fill="#FFFFFF" d="M5127.1,3573.1H3489.4v-372.2h1637.7c41.1,0,74.4,33.3,74.4,74.4v223.3
		C5201.5,3539.8,5168.2,3573.1,5127.1,3573.1z"/>
	<path opacity="0.2" fill="#1A237E" d="M5638.9,5322.5h-4727c-92.1,0-167.5-75.4-167.5-167.5v37.2c0,92.1,75.4,167.5,167.5,167.5
		h4727c92.1,0,167.5-75.4,167.5-167.5V5155C5806.4,5247.1,5731,5322.5,5638.9,5322.5z"/>
	<path opacity="0.2" fill="#FFFFFF" d="M911.9,1488.8h4727c92.1,0,167.5,75.4,167.5,167.5v-37.2c0-92.1-75.4-167.5-167.5-167.5
		h-4727c-92.1,0-167.5,75.4-167.5,167.5v37.2C744.4,1564.2,819.8,1488.8,911.9,1488.8z"/>
	<path fill="#FFFFFF" d="M2223.9,3238.2v335.7h481.7c-39.8,204.5-219.6,352.8-481.7,352.8c-292.4,0-529.5-247.3-529.5-539.7
		s237.1-539.7,529.5-539.7c131.7,0,249.6,45.3,342.7,134l0,0.2l254.9-254.9c-154.8-144.3-356.7-232.8-597.7-232.8
		c-493.3,0-893.3,399.9-893.3,893.3s399.9,893.3,893.3,893.3c515.9,0,855.3-362.7,855.3-873c0-58.5-5.4-114.9-14.1-169.2H2223.9z"/>
	<g opacity="0.2">
		<path fill="#1A237E" d="M2233.2,3573.9v37.2h472.7c3.5-12.2,6.5-24.6,9-37.2H2233.2z"/>
		<path fill="#1A237E" d="M2233.2,4280.3c-487.1,0-882.9-389.9-892.8-874.7c-0.1,6.2-0.5,12.4-0.5,18.6
			c0,493.4,399.9,893.3,893.3,893.3c515.9,0,855.3-362.7,855.3-873c0-4.1-0.5-7.9-0.5-12C3076.9,3929.5,2740.6,4280.3,2233.2,4280.3
			z"/>
		<path fill="#1A237E" d="M2575.9,2981.3c-93.1-88.6-211.1-134-342.7-134c-292.4,0-529.5,247.3-529.5,539.7c0,6.3,0.7,12.4,0.9,18.6
			c9.9-284.2,242.4-521.1,528.6-521.1c131.7,0,249.6,45.3,342.7,134l0,0.2l273.5-273.5c-6.4-6-13.5-11.3-20.1-17.1L2576,2981.5
			L2575.9,2981.3z"/>
	</g>
	<path opacity="0.2" fill="#1A237E" d="M4978.2,2828.7v-37.2c0,41.1-33.3,74.4-74.4,74.4H3489.4v37.2h1414.4
		C4944.9,2903.2,4978.2,2869.9,4978.2,2828.7z"/>
	<path opacity="0.2" fill="#1A237E" d="M4903.8,4280.3H3489.4v37.2h1414.4c41.1,0,74.4-33.3,74.4-74.4v-37.2
		C4978.2,4247,4944.9,4280.3,4903.8,4280.3z"/>
	<path opacity="0.2" fill="#1A237E" d="M5127.1,3573.1H3489.4v37.2h1637.7c41.1,0,74.4-33.3,74.4-74.4v-37.2
		C5201.5,3539.8,5168.2,3573.1,5127.1,3573.1z"/>
	<radialGradient id="SVGID_2_" cx="1476.4038" cy="434.2364" r="6370.563" gradientUnits="userSpaceOnUse">
		<stop  offset="0" style="stop-color:#FFFFFF;stop-opacity:0.1"/>
		<stop  offset="1" style="stop-color:#FFFFFF;stop-opacity:0"/>
	</radialGradient>
	<path fill="url(#SVGID_2_)" d="M6438.6,1408.1l-1227.7-330.2v-912c0-91.2-75.2-165.9-167.1-165.9H1507
		c-91.9,0-167.1,74.7-167.1,165.9v908.4L98.9,1526c-80,29.1-119.6,123.8-88,210.5l733.5,2015.4v1440.3
		c0,92.1,75.4,167.5,167.5,167.5h4727c92.1,0,167.5-75.4,167.5-167.5v-826.9l738.3-2755.2C6568.5,1521,6520.8,1430.1,6438.6,1408.1z
		"/>
</g>
</svg>
