<?xml version="1.0" encoding="UTF-8" standalone="no"?>
<!-- Created with Inkscape (http://www.inkscape.org/) -->

<svg
   xmlns:dc="http://purl.org/dc/elements/1.1/"
   xmlns:cc="http://creativecommons.org/ns#"
   xmlns:rdf="http://www.w3.org/1999/02/22-rdf-syntax-ns#"
   xmlns:svg="http://www.w3.org/2000/svg"
   xmlns="http://www.w3.org/2000/svg"
   xmlns:sodipodi="http://sodipodi.sourceforge.net/DTD/sodipodi-0.dtd"
   xmlns:inkscape="http://www.inkscape.org/namespaces/inkscape"
   width="100"
   height="31"
   viewBox="0 0 100 31.000001"
   id="svg2"
   version="1.1"
   inkscape:version="0.92.3 (2405546, 2018-03-11)"
   sodipodi:docname="Fox Sports Radio logo.svg">
  <title
     id="title4161">iHeartRadio logo</title>
  <defs
     id="defs4">
    <pattern
       y="0"
       x="0"
       height="6"
       width="6"
       patternUnits="userSpaceOnUse"
       id="EMFhbasepattern" />
  </defs>
  <sodipodi:namedview
     id="base"
     pagecolor="#ffffff"
     bordercolor="#666666"
     borderopacity="1.0"
     inkscape:pageopacity="0.0"
     inkscape:pageshadow="2"
     inkscape:zoom="1"
     inkscape:cx="61.766108"
     inkscape:cy="7.7603463"
     inkscape:document-units="px"
     inkscape:current-layer="layer1"
     showgrid="false"
     units="px"
     inkscape:showpageshadow="false"
     inkscape:window-width="1366"
     inkscape:window-height="705"
     inkscape:window-x="-8"
     inkscape:window-y="-8"
     inkscape:window-maximized="1"
     objecttolerance="1"
     gridtolerance="1"
     guidetolerance="1" />
  <metadata
     id="metadata7">
    <rdf:RDF>
      <cc:Work
         rdf:about="">
        <dc:format>image/svg+xml</dc:format>
        <dc:type
           rdf:resource="http://purl.org/dc/dcmitype/StillImage" />
        <dc:title>iHeartRadio logo</dc:title>
        <cc:license
           rdf:resource="http://scripts.sil.org/OFL" />
      </cc:Work>
      <cc:License
         rdf:about="http://scripts.sil.org/OFL">
        <cc:permits
           rdf:resource="http://scripts.sil.org/pub/OFL/Reproduction" />
        <cc:permits
           rdf:resource="http://scripts.sil.org/pub/OFL/Distribution" />
        <cc:permits
           rdf:resource="http://scripts.sil.org/pub/OFL/Embedding" />
        <cc:permits
           rdf:resource="http://scripts.sil.org/pub/OFL/DerivativeWorks" />
        <cc:requires
           rdf:resource="http://scripts.sil.org/pub/OFL/Notice" />
        <cc:requires
           rdf:resource="http://scripts.sil.org/pub/OFL/Attribution" />
        <cc:requires
           rdf:resource="http://scripts.sil.org/pub/OFL/ShareAlike" />
        <cc:requires
           rdf:resource="http://scripts.sil.org/pub/OFL/DerivativeRenaming" />
        <cc:requires
           rdf:resource="http://scripts.sil.org/pub/OFL/BundlingWhenSelling" />
      </cc:License>
    </rdf:RDF>
  </metadata>
  <g
     inkscape:label="Capa 1"
     inkscape:groupmode="layer"
     id="layer1"
     transform="translate(0,-1021.3622)">
    <g
       transform="matrix(0.4712629,0,0,-0.4712629,-140.72651,1185.2973)"
       id="g12">
      <g
         id="g10">
        <path
           inkscape:connector-curvature="0"
           style="fill:#c6002b;stroke-width:1.25000226"
           d="m 47.855469,182.44531 c -15.635029,0 -28.302735,12.667 -28.302735,28.30078 0,9.91915 6.281238,17.06999 12.84375,23.6875 l 25.660157,24.25977 c 1.344502,1.27113 3.55664,0.31714 3.55664,-1.5332 v -18.90039 c 0,-5.46839 4.427771,-9.90324 9.894531,-9.91211 5.466261,0.009 9.896485,4.44372 9.896485,9.91211 v 18.90039 c 0,1.85037 2.212138,2.80433 3.556641,1.5332 l 25.658202,-24.25977 c 6.56276,-6.61751 12.8457,-13.76873 12.8457,-23.6875 0,-15.63312 -12.6654,-28.29972 -28.300778,-28.30078 h -0.002 c -9.810724,7e-4 -18.576423,5.19793 -23.652343,12.78907 -5.076385,-7.59127 -13.841779,-12.78907 -23.654297,-12.78907 z m -6.765625,8.63672 c 0.630001,0.021 1.236702,0.34592 1.595703,0.91992 0.576001,0.915 0.298861,2.12713 -0.619141,2.70313 -4.395008,2.755 -7.835937,9.21221 -7.835937,14.69922 V 209.5 c 0,6.75901 3.841001,13.58977 11.416015,20.30078 0.813002,0.72 0.886924,1.95953 0.169922,2.76953 -0.388,0.438 -0.928749,0.65821 -1.46875,0.65821 -0.463001,0 -0.92678,-0.16024 -1.300781,-0.49024 C 34.596859,225.24727 30.310547,217.43001 30.310547,209.5 v -0.0957 c 0,-6.81402 4.159865,-14.56343 9.671875,-18.02344 0.344001,-0.215 0.730421,-0.31183 1.107422,-0.29883 z m 60.837886,0 c 0.37801,-0.013 0.76343,0.0838 1.10743,0.29883 5.51301,3.46001 9.67187,11.20942 9.67187,18.02344 V 209.5 c 0,7.93001 -4.28531,15.74727 -12.736327,23.23828 -0.373001,0.33 -0.83778,0.49024 -1.300781,0.49024 -0.539001,0 -1.080749,-0.22021 -1.46875,-0.65821 -0.719001,-0.81 -0.644033,-2.04953 0.167969,-2.76953 7.575009,-6.71101 11.416019,-13.54177 11.416019,-20.30078 v -0.0957 c 0,-5.48701 -3.44193,-11.94617 -7.83594,-14.70118 -0.918,-0.576 -1.19319,-1.78617 -0.61719,-2.70117 0.359,-0.574 0.9667,-0.89892 1.5957,-0.91992 z m -46.548824,5.01367 c 0.762002,-0.064 1.52139,0.32302 1.900391,1.04102 0.504001,0.959 0.137736,2.14344 -0.822266,2.64844 -3.929007,2.067 -6.374765,6.10119 -6.384765,10.5332 0.011,4.82201 3.06646,9.76364 7.605468,12.30664 0.946002,0.527 1.281908,1.72297 0.753907,2.66797 -0.359001,0.641 -1.024937,1.00391 -1.710938,1.00391 -0.327,0 -0.655984,-0.08 -0.958984,-0.25 -5.729011,-3.20801 -9.586328,-9.51026 -9.611328,-15.69727 v -0.0586 c 0.023,-5.88402 3.266459,-11.23456 8.480468,-13.97657 0.240001,-0.126 0.494047,-0.19675 0.748047,-0.21875 z m 32.259766,0 c 0.254,0.022 0.509046,0.0927 0.748047,0.21875 5.214009,2.74201 8.456468,8.09255 8.480469,13.97657 v 0.0586 c -0.025,6.18701 -3.882318,12.48926 -9.611329,15.69727 -0.303,0.17 -0.631983,0.25 -0.958984,0.25 -0.686001,0 -1.35289,-0.36291 -1.712891,-1.00391 -0.528001,-0.945 -0.190142,-2.14097 0.75586,-2.66797 4.540008,-2.543 7.591515,-7.48463 7.603515,-12.30664 -0.01,-4.43201 -2.452805,-8.4662 -6.382812,-10.5332 -0.959002,-0.505 -1.32922,-1.68944 -0.824219,-2.64844 0.378001,-0.718 1.141342,-1.10502 1.902344,-1.04102 z m -16.13086,7.16602 c 4.699009,0.003 8.507813,3.81271 8.507813,8.51172 0,4.69901 -3.808804,8.50872 -8.507813,8.51172 -4.698008,-0.003 -8.505859,-3.81271 -8.505859,-8.51172 0,-4.69901 3.807851,-8.50872 8.505859,-8.51172 z"
           id="path2"
           transform="matrix(0.79999852,0,0,-0.79999852,285.14932,491.11566)" />
        <path
           d="m 244.54,45.574 c -9.62,0 -16.17,7.638 -16.17,16.362 v 0.087 c 0,8.721 6.45,16.268 16.08,16.268 9.62,0 16.18,-7.637 16.18,-16.355 v -0.092 c 0,-8.723 -6.46,-16.27 -16.09,-16.27 z m -85.52,0.182 c -1.14,0 -1.81,0.587 -2.26,1.584 L 143.92,75.4 c -0.18,0.362 -0.22,0.679 -0.22,0.948 0,0.904 0.72,1.627 1.62,1.627 0.82,0 1.41,-0.451 1.72,-1.221 l 3.3,-7.365 h 17.35 l 3.3,7.275 c 0.32,0.723 0.9,1.311 1.76,1.311 0.95,0 1.72,-0.771 1.72,-1.717 0,-0.272 -0.09,-0.586 -0.22,-0.903 L 161.41,47.34 c -0.4,-0.997 -1.13,-1.584 -2.21,-1.584 z m 59.68,0.135 c -0.95,0 -1.76,0.816 -1.76,1.808 v 28.467 c 0,0.994 0.81,1.809 1.76,1.809 0.99,0 1.8,-0.815 1.8,-1.809 V 47.699 c 0,-0.992 -0.81,-1.808 -1.8,-1.808 z m -103.74,0.226 c -0.95,0 -1.76,0.814 -1.76,1.809 v 28.24 c 0,0.994 0.81,1.809 1.76,1.809 1,0 1.81,-0.815 1.81,-1.809 V 65.457 h 9.08 l 8.9,11.568 c 0.41,0.543 0.95,0.95 1.68,0.95 0.9,0 1.8,-0.815 1.8,-1.764 0,-0.496 -0.22,-0.9 -0.58,-1.309 l -7.86,-10.121 c 4.92,-0.951 8.44,-3.976 8.44,-9.174 v -0.089 c 0,-2.487 -0.9,-4.702 -2.44,-6.237 -1.98,-1.988 -5.1,-3.164 -8.99,-3.164 z m 68.09,0 c -0.95,0 -1.76,0.814 -1.76,1.809 v 28.015 c 0,0.995 0.81,1.807 1.76,1.807 h 9.22 c 9.94,0 16.81,-6.915 16.81,-15.812 v -0.092 c 0,-8.903 -6.87,-15.727 -16.81,-15.727 z m 61.4,2.758 c 7.23,0 12.47,5.873 12.47,13.061 v 0.087 c 0,7.186 -5.15,12.971 -12.38,12.971 -7.23,0 -12.47,-5.875 -12.47,-13.058 v -0.092 c 0,-7.183 5.15,-12.969 12.38,-12.969 z m -127.68,0.543 h 9.76 c 5.11,0 8.09,2.347 8.09,6.236 v 0.09 c 0,4.064 -3.39,6.506 -8.13,6.506 h -9.72 z m 68.09,0 h 7.41 c 7.99,0 13.1,5.511 13.1,12.518 v 0.087 c 0,7.007 -5.11,12.43 -13.1,12.43 h -7.41 z m -25.84,0.541 7.27,16.178 h -14.55 z"
           transform="matrix(0.8,0,0,-0.8,299.56,346.33)"
           id="path4"
           inkscape:connector-curvature="0"
           style="fill:#939697" />
        <path
           d="m 118.79,2.373 c -2.72,0 -4.93,2.2079 -4.93,4.9336 0,2.7254 2.21,4.9354 4.93,4.9354 2.73,0 4.94,-2.21 4.94,-4.9354 0,-2.7257 -2.21,-4.9336 -4.94,-4.9336 z m 9.12,2.4668 v 34.258 h 9.5 v -13.016 h 12.18 v 13.016 h 9.49 V 4.8398 l -9.49,-2e-4 v 12.824 H 137.41 V 4.8396 l -9.5,-2e-4 z M 243.28,5.918 v 6.705 h -3.12 v 7.486 h 3.12 v 10.77 c 0,6.308 3.34,8.76 8.91,8.76 2.6,0 4.8,-0.591 6.46,-1.522 v -7.289 c -1.12,0.537 -2.3,0.879 -3.52,0.879 -1.71,0 -2.55,-0.781 -2.55,-2.641 v -8.957 h 6.17 v -7.486 h -6.17 V 5.918 Z m -68.1,6.119 c -7.83,0 -13.36,6.116 -13.36,13.848 v 0.099 c 0,8.221 5.87,13.75 14.19,13.75 5.29,0 8.96,-2.153 11.51,-5.384 l -5.14,-4.258 c -1.91,1.862 -3.67,2.697 -5.88,2.697 -2.88,0 -4.99,-1.471 -5.72,-4.359 h 17.71 c 0.05,-0.639 0.05,-1.323 0.05,-1.909 0,-7.782 -4.21,-14.484 -13.36,-14.484 z m 26.85,0.004 c -5.29,0 -8.96,2.154 -11.51,5.385 l 5.14,4.258 c 1.91,-1.862 3.67,-2.698 5.88,-2.698 2.85,0 4.94,1.441 5.69,4.266 l 0.01,0.203 -6.12,0.025 c -7.61,0.1 -11.6,2.935 -11.6,8.307 0,5.173 3.68,7.947 10.03,7.947 3.44,0 6.08,-1.35 7.85,-3.189 v 2.553 h 8.8 V 26.145 c 0.01,-0.087 0.01,-0.165 0.01,-0.254 v -0.098 c 0,-8.222 -5.87,-13.752 -14.18,-13.752 z m 34.64,0.133 c -3.9,0.111 -6.14,2.386 -7.56,5.781 v -5.332 h -9.3 v 26.475 h 9.3 v -8.221 c 0,-6.119 2.74,-8.906 7.58,-8.906 h 0.78 v -9.789 c -0.27,-0.012 -0.54,-0.016 -0.8,-0.008 z m -118.05,2.39 c -2.68,0 -4.85,2.174 -4.85,4.856 v 19.678 h 10.05 V 19.42 c 0,-2.682 -2.17,-4.856 -4.86,-4.856 z m 56.61,4.323 c 2.54,0 4.6,1.838 4.6,4.668 h -9.2 c 0.22,-2.778 2.15,-4.668 4.6,-4.668 z m 26.87,9.527 h 5.31 v 0.289 c -0.04,1.088 -0.48,4.91 -5.08,5.108 -2.41,0.103 -3.84,-1.285 -3.84,-2.952 0,-1.611 1.28,-2.445 3.61,-2.445 z"
           transform="matrix(0.8,0,0,-0.8,299.56,346.33)"
           id="path8"
           inkscape:connector-curvature="0"
           style="fill:#000000" />
      </g>
    </g>
  </g>
</svg>
