<?xml version="1.0" encoding="UTF-8" standalone="no"?>
<svg xmlns:rdf="http://www.w3.org/1999/02/22-rdf-syntax-ns#" xmlns="http://www.w3.org/2000/svg" xml:space="preserve" height="259.06" viewBox="0 0 492.06589 259.06375" width="492.07" version="1.1" xmlns:cc="http://creativecommons.org/ns#" xmlns:dc="http://purl.org/dc/elements/1.1/"><g transform="matrix(1.25 0 0 -1.25 -140.79 596.34)"><g><path d="m316.93 373.81c0-55.904-45.321-101.22-101.23-101.22-55.9 0-101.22 45.319-101.22 101.22 0 55.909 45.323 101.23 101.22 101.23 55.907 0 101.23-45.319 101.23-101.23" fill="#009bff"/><path d="m335.73 28.695c-9.92 0-16.94 5.734-16.94 14.303 0 7.794 5.8 11.207 12.37 13.207 4.89 1.483 7.8 2.381 7.8 5.541 0 2.644-2.01 4.061-5.36 4.061-4.44 0-8.3-2.515-10.63-5.282l-6.25 8.629c2.78 3.03 9.22 6.575 17.53 6.575 11.28 0 17.52-6.509 17.52-15.204 0-8.313-5.67-11.666-13.01-13.984-3.74-1.162-7.15-1.933-7.15-4.766 0-1.803 1.42-3.158 4.77-3.158 3.86 0 7.02 1.806 8.88 3.93l5.87-8.637c-3.28-3.091-8.51-5.215-15.4-5.215zm33.44 0.901l-16.81 45.23h13.14l2.06-6.508h17.07l2.13 6.508h13.47l-16.82-45.23h-14.24zm-95.88 0.002v28.798c0 11.147 6.77 17.333 19.97 17.333 12.83 0 19.98-6.186 19.98-17.333v-28.798h-12.95v25.064c0 4.958-0.52 9.793-7.03 9.793-6.5 0-7.02-4.835-7.02-9.793v-25.064h-12.95zm102.65 10.756h0.38c0.26 1.933 0.84 4.643 1.55 6.767l3.48 10.889h-10.44l3.48-10.889c0.71-2.124 1.29-4.834 1.55-6.767zm-41.5 42.585c-16.82 0-24.81 12.436-24.81 23.581 0 11.08 7.99 23.45 24.81 23.45 16.88 0 24.88-12.37 24.88-23.45 0-11.145-8-23.581-24.88-23.581zm-60.95 0.901v10.502h11.14v34.728h12.95v-34.728h11.14v-10.502h-35.23zm147.3 0l-16.82 45.23h13.14l2.06-6.51h17.08l2.13 6.51h13.46l-16.82-45.23h-14.23zm22.17 0l16.88 29.12v16.11h13.65v-16.11l16.89-29.12h-13.79l-6.12 11.146c-1.29 2.383-3.1 5.994-3.48 8.374h-0.26c-0.38-2.38-2.19-5.991-3.48-8.374l-6.12-11.146h-14.17zm-79 0.002v45.228h16.68c15.72 0 25.13-8.76 25.13-22.61 0-14.115-9.15-22.618-25.13-22.618h-16.68zm-29.58 10.373c6.32 0 11.59 4.188 11.59 12.305 0 8.05-5.27 12.18-11.59 12.18-6.19 0-11.47-4.13-11.47-12.18 0-8.117 5.28-12.305 11.47-12.305zm42.53 0.064h2.77c8.31 0 12.75 3.994 12.75 12.181 0 8.18-4.44 12.17-12.75 12.17h-2.77v-24.351zm50.64 0.317h0.39c0.26 1.937 0.84 4.642 1.55 6.774l3.48 10.89h-10.44l3.48-10.89c0.7-2.132 1.28-4.837 1.54-6.774zm-104.32 52.634l-0.32 0.06v11.61h1.96v-7.34l7.17 7.56 0.22-0.04v-11.63h-1.96v7.23l-7.07-7.45zm13.24 0l-0.31 0.06v11.61h1.96v-7.34l7.17 7.56 0.22-0.04v-11.63h-1.96v7.23l-7.08-7.45zm116.69 0l-0.32 0.06v11.61h1.96v-7.34l7.17 7.56 0.22-0.04v-11.63h-1.95v7.23l-7.08-7.45zm-150.54 0.02c-3.23 0-6.08 2.37-6.08 5.93 0 3.53 2.81 5.91 6.08 5.91 1.72 0 3.05-0.45 4.27-1.25v-5h-4.55v1.71h2.68v2.26c-0.68 0.37-1.33 0.55-2.32 0.55-2.27 0-4.07-1.74-4.07-4.18 0-2.28 1.48-4.12 4.08-4.12 1.06 0 2.16 0.35 3.08 0.95l0.89-1.56c-1.17-0.73-2.37-1.2-4.06-1.2zm92.52 0.01c-3.59 0-6.17 2.53-6.17 5.92 0 3.41 2.55 5.91 6.17 5.91 1.42 0 2.79-0.47 3.74-1.08l-0.59-1.66c-0.92 0.55-2.11 0.91-3.13 0.91-2.52 0-4.09-1.67-4.09-4.08 0-2.42 1.53-4.09 4.05-4.09 1.01 0 2.13 0.35 3.04 0.87l0.68-1.66c-0.98-0.59-2.28-1.04-3.7-1.04zm11.74 0c-3.31 0-5.85 2.52-5.85 5.92 0 3.39 2.43 5.91 5.74 5.91 3.32 0 5.85-2.52 5.85-5.91 0-3.4-2.42-5.92-5.74-5.92zm9.09 0.02l-0.29 0.02-0.49 11.6h1.93l0.12-6.87 3.64 5.48h0.24l3.61-5.47 0.16 6.86h1.92l-0.48-11.6-0.32-0.02-4.96 7.59-5.08-7.59zm-132.49 0.01l-5.28 11.61h2.01l1.11-2.62h4.53l1.11 2.62h2.07l-5.27-11.61h-0.28zm30.92 0l-5.28 11.61h2.01l1.12-2.62h4.52l1.12 2.62h2.05l-5.26-11.61h-0.28zm129.93 0l-5.29 11.61h2.02l1.11-2.62h4.54l1.1 2.62h2.07l-5.27-11.61h-0.28zm-10.81 0.08c-0.94 0-1.89 0.06-2.9 0.19v11.34h1.95v-3.73c0.37 0.02 0.77 0.05 1.14 0.05 2.93 0 4.56-1.66 4.56-3.99 0-2.15-1.6-3.86-4.75-3.86zm-84.11 0.08v11.45h6.99v-1.78h-5.03v-3.17h4.54v-1.73h-4.54v-3h5.03v-1.77h-6.99zm9.99 0v1.78h3.64v9.67h1.96v-9.67h3.62v-1.78h-9.22zm11.57 0v1.78h3.64v9.67h1.96v-9.67h3.63v-1.78h-9.23zm93.97 0l4.03 6.63v4.82h1.96v-4.81l4.03-6.64h-2.19l-2.79 4.84-2.8-4.84h-2.24zm-58.11 1.56c2.18 0 3.69 1.78 3.69 4.17 0 2.38-1.51 4.17-3.69 4.17s-3.7-1.79-3.7-4.17c0-2.39 1.52-4.17 3.7-4.17zm27.02 0.16c1.6 0 2.39 0.99 2.39 2.12 0 1.3-0.81 2.22-2.58 2.22-0.34 0-0.7-0.03-1.09-0.06v-4.19c0.4-0.06 0.84-0.09 1.28-0.09zm-150.26 1.73l1.62 3.83h-3.25l1.63-3.83zm30.92 0l1.63 3.83h-3.26l1.63-3.83zm129.93 0l1.62 3.83h-3.25l1.63-3.83z" transform="matrix(.8 0 0 -.8 112.63 477.07)"/></g></g></svg>
