<?xml version="1.0" encoding="UTF-8"?>
 <!DOCTYPE svg PUBLIC "-//W3C//DTD SVG 1.1//EN"
   "http://www.w3.org/Graphics/SVG/1.1/DTD/svg11.dtd">
 <svg xmlns="http://www.w3.org/2000/svg" version="1.1"
   xmlns:xlink="http://www.w3.org/1999/xlink" width="778.20404" height="261.5769">
  <defs>
    <linearGradient id="linearGradient3347">
      <stop style="stop-color:#1974b4" offset="0" />
      <stop style="stop-color:#e0ebf5" offset="0.794873" />
      <stop style="stop-color:#176da8" offset="1" />
    </linearGradient>
    <linearGradient id="linearGradient3313">
      <stop style="stop-color:#3081bc" offset="0" />
      <stop style="stop-color:#d2e3ef" offset="0.48092771" />
      <stop style="stop-color:#75acd2" offset="0.62224746" />
      <stop style="stop-color:#4691c4" offset="0.81112373" />
      <stop style="stop-color:#1876b6" offset="1" />
    </linearGradient>
    <linearGradient id="linearGradient3303">
      <stop style="stop-color:#1977b6" offset="0" />
      <stop style="stop-color:#80b4d7" offset="0.70738685" />
      <stop style="stop-color:#e8f1f8" offset="1" />
    </linearGradient>
    <linearGradient id="linearGradient3259">
      <stop style="stop-color:#ffffff" offset="0" />
      <stop style="stop-color:#ffffff" offset="0.18597515" />
      <stop style="stop-color:#0861a8" offset="1" />
    </linearGradient>
    <radialGradient cx="670.4223" cy="-1006.3694" r="71.619308" fx="670.4223" fy="-1006.3694" id="radialGradient2415" xlink:href="#linearGradient3259" gradientUnits="userSpaceOnUse" gradientTransform="matrix(0.948791,-0.0106253,0.0136585,1.21965,15.772504,1341.1334)" />
    <radialGradient cx="640.94489" cy="-951.84656" r="56.41993" fx="640.94489" fy="-951.84656" id="radialGradient2418" xlink:href="#linearGradient3313" gradientUnits="userSpaceOnUse" gradientTransform="matrix(-1.35919,-4.72579e-7,5.20502e-7,-1.41059,1460.4628,-1164.3966)" />
    <linearGradient x1="741.38379" y1="-931.54358" x2="817.88495" y2="-1027.5079" id="linearGradient2421" xlink:href="#linearGradient3347" gradientUnits="userSpaceOnUse" gradientTransform="matrix(0.855526,0,0,0.855526,62.072404,974.5044)" spreadMethod="reflect" />
    <linearGradient x1="576.09137" y1="-1050.4202" x2="600.62183" y2="-1125.1715" id="linearGradient2424" xlink:href="#linearGradient3303" gradientUnits="userSpaceOnUse" gradientTransform="matrix(0.855526,0,0,0.855526,62.072404,974.5044)" spreadMethod="reflect" />
  </defs>
  <path d="M 564.70405,0.00464908 C 560.09713,0 555.62506,1.6591911 552.32905,4.8796491 549.03305,8.1001921 547.172,12.521442 547.1728,17.129649 L 547.14155,90.473399 C 547.4166,91.597439 547.80786,92.635689 548.2353,93.598399 562.31241,63.074953 593.16636,41.910899 628.9853,41.910899 632.89654,41.910899 636.76997,42.13988 640.5478,42.629649 639.74701,41.612433 638.79091,40.634716 637.6103,39.723399 L 572.8603,2.3171491 C 570.37793,0.87935108 567.57188,0.07548708 564.70405,0.00464908 z" fill="url(#linearGradient2424)" />
  <path d="M 699.0478,76.067149 C 710.85013,91.154909 717.89155,110.14549 717.89155,130.7859 717.89155,151.34565 710.89187,170.25795 699.1728,185.31715 700.54032,184.95181 701.99996,184.50264 703.51655,183.87965 L 769.6728,145.69215 C 774.9592,142.63315 778.20405,136.9873 778.20405,130.87965 778.20403,124.77199 774.9592,119.12613 769.6728,116.06715 L 703.6103,77.879649 C 702.18073,77.051638 700.64147,76.452039 699.0478,76.067149 z" fill="url(#linearGradient2421)" />
  <path d="M 549.32905,170.25465 C 548.55592,170.49915 547.81109,170.75215 547.1103,171.0359 L 547.07905,244.4734 C 547.08255,250.58473 550.34837,256.23129 555.64155,259.2859 560.93473,262.34051 567.4422,262.34066 572.7353,259.2859 L 637.64155,221.8484 C 638.33086,220.91222 638.92158,219.9829 639.4853,219.06715 636.04598,219.47133 632.53322,219.69215 628.9853,219.69215 594.06904,219.69215 563.86919,199.54268 549.32905,170.25465 z" fill="url(#radialGradient2418)" />
  <path d="M 695.71007,130.79133 C 695.71007,167.63677 665.84093,197.50591 628.99549,197.50591 592.15004,197.50591 562.2809,167.63677 562.2809,130.79133 562.2809,93.945869 592.15004,64.076732 628.99549,64.076732 665.84093,64.076732 695.71007,93.945869 695.71007,130.79133 L 695.71007,130.79133 z" fill="url(#radialGradient2415)" />
  <path d="M 75.226114,40.327732 C 71.455754,40.295894 67.614854,46.677666 61.270338,59.558555 L 1.2498242,197.81155 C -2.0576348,205.41898 1.4255632,214.26839 9.0297662,217.57726 16.633968,220.88613 25.479616,217.40144 28.787075,209.79401 L 38.866243,186.55124 111.21168,186.55124 121.29085,209.79401 C 124.5983,217.40144 133.44396,220.88613 141.04816,217.57726 148.65236,214.26839 152.13555,205.41898 148.8281,197.81155 L 88.807584,59.558555 C 82.696254,46.80528 78.996454,40.359657 75.226114,40.327732 z M 75.038964,103.26244 98.806554,158.01266 51.271374,158.01266 75.038964,103.26244 z" fill="#0861a8" />
  <path d="M 382.29934,57.474593 382.29934,201.68069 459.57352,201.68069 M 317.4654,129.57758 C 317.4654,169.68712 284.9502,202.20233 244.84065,202.20233 204.73111,202.20233 172.21591,169.68712 172.21591,129.57758 172.21591,89.468049 204.73111,56.952839 244.84065,56.952839 284.9502,56.952839 317.4654,89.468049 317.4654,129.57758 z" style="fill:none;stroke:#0861a8;stroke-width:34.3;stroke-linecap:round;stroke-linejoin:round" />
  <path d="M 612.81788,247.45578 603.28757,247.45578 603.28757,249.77053 606.70546,249.77053 606.70546,261.36242 609.38191,261.36242 609.38191,249.77053 612.81788,249.77053 612.81788,247.45578 z M 627.06344,247.45578 623.77214,247.45578 622.19883,252.68207 C 621.96297,253.51696 621.74295,254.34732 621.53876,255.17315 621.33455,255.99899 621.1507,256.80222 620.9872,257.58285 L 620.93294,257.58285 C 620.77847,256.78753 620.60366,255.98204 620.4085,255.16636 620.21334,254.3507 620.00236,253.52261 619.77557,252.68207 L 618.27459,247.45578 614.9652,247.45578 614.02483,261.36242 616.46618,261.36242 616.73744,256.00953 C 616.78377,255.13698 616.82673,254.21922 616.86629,253.25624 616.90584,252.29327 616.93523,251.36647 616.95445,250.47581 L 617.0087,250.47581 C 617.17334,251.33595 617.35945,252.21076 617.56705,253.10026 617.77464,253.98977 617.99239,254.83295 618.22033,255.62977 L 619.75748,261.16349 621.7829,261.16349 623.48279,255.53935 C 623.72089,254.75195 623.959,253.92159 624.19711,253.04827 624.43521,252.17497 624.65523,251.31749 624.85719,250.47581 L 624.91144,250.47581 C 624.90502,251.35629 624.91783,252.25823 624.94987,253.18164 624.98188,254.10506 625.01729,255.02961 625.05611,255.95529 L 625.30928,261.36242 627.85914,261.36242 627.06344,247.45578 z M 495.04206,202.43078 492.87651,202.43078 492.87651,206.80701 495.10222,206.80701 C 496.33536,206.80701 497.21261,206.64159 497.73396,206.31073 498.25528,205.9799 498.51595,205.43851 498.51596,204.68657 498.51595,203.89455 498.24275,203.32058 497.69636,202.96466 497.14994,202.60876 496.26519,202.4308 495.04206,202.43078 L 495.04206,202.43078 z M 495.43307,201.04724 C 497.21763,201.04726 498.54352,201.33299 499.41076,201.90444 500.27796,202.47592 500.71158,203.34816 500.71159,204.52114 500.71158,205.41345 500.44589,206.15785 499.91455,206.75437 499.38317,207.35091 498.66132,207.72938 497.749,207.88978 L 500.57624,213.67962 498.21519,213.67962 495.56841,208.19055 492.87651,208.19055 492.87651,213.67962 490.75608,213.67962 490.75608,201.04724 495.43307,201.04724 z M 504.89231,207.60405 C 504.89229,206.27064 504.65167,205.00991 504.17046,203.82185 503.6892,202.63383 502.99743,201.58363 502.09514,200.67127 501.1527,199.7389 500.09248,199.02959 498.91448,198.54332 497.73645,198.05709 496.47572,197.81397 495.13229,197.81395 493.80889,197.81397 492.57071,198.04958 491.41777,198.52076 490.26481,198.992 489.24219,199.67875 488.34991,200.58105 487.40749,201.53351 486.68564,202.60625 486.18436,203.79929 485.68307,204.99237 485.43243,206.24056 485.43243,207.5439 485.43243,208.81717 485.67806,210.0403 486.16932,211.2133 486.66057,212.38631 487.36739,213.44402 488.28976,214.38643 489.20208,215.3088 490.24475,216.01561 491.41777,216.50687 492.59077,216.99813 493.81891,217.24376 495.10222,217.24376 496.41557,217.24376 497.66627,217.00063 498.85433,216.51439 500.04236,216.02814 501.11261,215.31882 502.06506,214.38643 502.97738,213.48412 503.67667,212.45148 504.16294,211.28849 504.64916,210.12552 504.89229,208.89737 504.89231,207.60405 L 504.89231,207.60405 z M 495.13229,196.49057 C 496.63613,196.49058 498.05978,196.7688 499.40324,197.3252 500.74666,197.88165 501.94975,198.69122 503.01249,199.75393 504.03509,200.77656 504.8196,201.95709 505.36603,203.29551 505.9124,204.63395 506.1856,206.05008 506.18563,207.5439 506.1856,209.05778 505.9124,210.47642 505.36603,211.79981 504.8196,213.1232 504.02506,214.29119 502.98241,215.30378 501.88959,216.36651 500.66896,217.1811 499.32053,217.74755 497.97205,218.314 496.57598,218.59723 495.13229,218.59723 493.67855,218.59723 492.28248,218.3165 490.94406,217.75506 489.60561,217.19363 488.40505,216.37654 487.34232,215.30378 486.28962,214.26111 485.48756,213.07307 484.93615,211.73964 484.38474,210.40624 484.10904,209.00766 484.10904,207.5439 484.10904,206.07013 484.39477,204.6565 484.96623,203.30303 485.5377,201.94957 486.3598,200.73647 487.43255,199.6637 488.44514,198.63107 489.60812,197.84405 490.9215,197.30264 492.23485,196.76128 493.63845,196.49058 495.13229,196.49057 L 495.13229,196.49057 z" fill="#0861a8" />
 </svg>