<svg width="14" height="25" xmlns="http://www.w3.org/2000/svg"><path d="M13.8 2.9c0-2-1.9-2.5-3.4-2.5v.3c.9 0 1.6.3 1.6 1 0 .4-.3 1-1.2 1-.7 0-2.2-.4-3.3-.8C6.2 1.4 5 1 4 1 2 1 .6 2.5.6 4.2c0 1.5 1.1 2 1.5 2.2l.1-.2c-.2-.2-.5-.4-.5-1 0-.4.4-1.1 1.4-1.1.9 0 2.1.4 3.7.9 1.4.4 2.9.7 3.7.8v3.1L9 10.2v.1l1.5 1.3v4.3c-.8.5-1.7.6-2.5.6-1.5 0-2.8-.4-3.9-1.6l4.1-2V6l-5 2.2C3.6 6.9 4.7 6 5.8 5.4l-.1-.3c-3 .8-5.7 3.6-5.7 7 0 4 3.3 7 7 7 4 0 6.6-3.2 6.6-6.5h-.2c-.6 1.3-1.5 2.5-2.6 3.1v-4.1l1.6-1.3v-.1l-1.6-1.3V5.8c1.5 0 3-1 3-2.9zm-8.7 11l-1.2.6c-.7-.9-1.1-2.1-1.1-3.8 0-.7 0-1.5.2-2.1l2.1-.9v6.2z"/></svg>