<svg xmlns="http://www.w3.org/2000/svg" xmlns:xlink="http://www.w3.org/1999/xlink" viewBox="0 0 30.5 43.71"><defs><style>.a{fill:none;}.b{clip-path:url(#a);}.c{fill:#fff;}</style><clipPath id="a" transform="translate(0 -0.04)"><polygon class="a" points="0 43.87 31.02 43.87 31.02 0 0 0 0 43.87 0 43.87"/></clipPath></defs><g class="b"><path d="M18.33,34.24V9.71c-3.43-.37-5.43-2.82-6.58-4.18L8.46,8.2a25.18,25.18,0,0,0,2.35,9.93c1.16,2.71,2.46,6.25,2.46,8.68,0,4-2.2,6.54-7.47,11.5l.15.16a23.25,23.25,0,0,1,12.38-4.23Zm12.17.62-4.8,8.89a20.21,20.21,0,0,0-10.66-3C7.83,40.72,2.87,42,.31,43.65L0,43.28c2.29-2,6.11-5.22,6.11-12.55A26.44,26.44,0,0,0,4,21.84c-1-2.66-1.83-4-1.83-7.74C2.14,7.63,5.61,4,11.07,1.19l.42.52a8.64,8.64,0,0,0-3,5.65L17.18,0c2.24,3.15,4.35,4.34,7.11,4.34,2.26,0,2.92-1,2.92-1.78,0-.57-.78-.69-.78-1.25a.62.62,0,0,1,.68-.68c.69,0,.88.89.88,1.57a7.56,7.56,0,0,1-7.41,7.68,11.38,11.38,0,0,1-1.73-.05V34.24a23.32,23.32,0,0,1,9.77,2.45l1.2-2.14.68.31Z" transform="translate(0 -0.04)"/><path class="c" d="M24.65,8l0-.37a8.3,8.3,0,0,1-3.29,1c-4.32,0-7-3.1-8-4.39l-1,.84c1.63,2,3.95,4.34,8.1,4.34A7.73,7.73,0,0,0,24.65,8" transform="translate(0 -0.04)"/><path class="c" d="M7.94,30c0-5.92-4.18-10.52-4.18-16.89a13.71,13.71,0,0,1,.73-5.17L4.23,8A14,14,0,0,0,2.87,14.1c0,6.49,3.87,10,3.87,16.42A13,13,0,0,1,6,35.33h.31A9.42,9.42,0,0,0,7.94,30" transform="translate(0 -0.04)"/><path class="c" d="M26.11,41.76a20.57,20.57,0,0,0-10-2.71A31.63,31.63,0,0,0,4.54,41v.32A40.8,40.8,0,0,1,15.3,40.14a21.2,21.2,0,0,1,10.19,2.77l.62-1.15" transform="translate(0 -0.04)"/></g></svg>