<svg xmlns="http://www.w3.org/2000/svg" viewBox="0 0 64.79 64.79"><defs><style>.a{fill:#0a66c2;}.b{fill:#fff;}</style></defs><path class="a" d="M60,0H4.78A4.72,4.72,0,0,0,0,4.67V60.11a4.73,4.73,0,0,0,4.78,4.68H60a4.74,4.74,0,0,0,4.8-4.68V4.67A4.75,4.75,0,0,0,60,0ZM19.21,55.2H9.6V24.29h9.61Zm-4.8-35.14A5.57,5.57,0,1,1,20,14.49,5.57,5.57,0,0,1,14.41,20.06Z"/><circle class="b" cx="14.41" cy="14.49" r="5.57"/><rect class="b" x="9.6" y="24.29" width="9.61" height="30.91"/><path class="b" d="M55.21,38.24v17H45.6v-15c0-3.58-.06-8.2-5-8.2s-5.76,3.91-5.76,7.94V55.2h-9.6V24.29h9.21v4.22h.13a10.09,10.09,0,0,1,9.09-5C53.41,23.52,55.21,29.92,55.21,38.24Z"/></svg>