<svg xmlns="http://www.w3.org/2000/svg" viewBox="0 0 22.46 22.86"><path d="M4,9.72a1.77,1.77,0,0,0-.73.16A1.68,1.68,0,1,0,4,9.71Zm7.26,0a1.71,1.71,0,1,0,1.68,1.71,1.7,1.7,0,0,0-1.68-1.71Z"/><path d="M18.47,14.86a3.43,3.43,0,1,1,3.28-4.21H20a1.69,1.69,0,1,0-1.5,2.49A1.66,1.66,0,0,0,20,12.2h1.78a3.38,3.38,0,0,1-3.28,2.67Zm-7.24,0a3.4,3.4,0,0,1-3.37-3.41l0-6h1.7V8.67A2.75,2.75,0,0,1,11.23,8a3.43,3.43,0,0,1,0,6.86Zm-5.55,0V14a2.71,2.71,0,0,1-1.83.86A3.3,3.3,0,0,1,.6,11.43,3.4,3.4,0,0,1,4,8a3.34,3.34,0,0,1,.84.11,3.42,3.42,0,0,1,2.53,3.32h0l0,3.42ZM11.23,0A11.33,11.33,0,0,0,0,11.43,11.33,11.33,0,0,0,11.23,22.86,11.33,11.33,0,0,0,22.46,11.43,11.33,11.33,0,0,0,11.23,0Z"/></svg>