<svg xmlns="http://www.w3.org/2000/svg" viewBox="0 0 66.53 66.53"><defs><style>.a{fill:#052962;}.b{fill:#fff;}</style></defs><circle class="a" cx="33.27" cy="33.27" r="33.27"/><path class="b" d="M9.08,33.62c0-5.6,1.1-11.4,4.2-16.1a22.79,22.79,0,0,1,13-9.1c6.3-1.8,13.3-1.6,19.8-.4,1.4.3,2.8.6,4.1,1,.2.1,1.1.3,1.2.5v.3a17,17,0,0,1,.1,3.9c.1,3.1.1,6.3.2,9.4a6.53,6.53,0,0,1-1.4,0c-.2-.1-.4-.6-.5-.8-.8-1.2-1.6-2.4-2.3-3.7-1.7-2.7-3.5-5.4-5.2-8.1-.9-1.5-3.4-1.5-5-1.5a9.86,9.86,0,0,0-5.1,1.2c-3.4,2.1-5,6.2-5.9,9.9-1.4,5.9-1.3,12.1-1,18.1.3,4.6.7,9.5,2.5,13.7,1.1,2.6,3,4.9,5.9,5.5a8.68,8.68,0,0,0,2.8.1c.6-.1,2.7-.2,3-.8a2.72,2.72,0,0,0,0-.9V39.42c0-.7.2-1-.4-1.4a25.29,25.29,0,0,1-2.2-1.3c-.5-.3-1.5-.6-1.8-1a2,2,0,0,1-.1-1.5c.1-.2.1-.1.4-.1a15,15,0,0,1,3,0h15.5c1,0,2.1-.1,3.1,0h.4a4.84,4.84,0,0,1,0,1.7,6.08,6.08,0,0,1-1.6.9,25.29,25.29,0,0,0-2.2,1.3c-.8.4-.7.4-.7,1.3v16.3a2.72,2.72,0,0,1,0,.9c-.2.5-2.3.8-2.9,1a45.37,45.37,0,0,1-5.3,1.2,53,53,0,0,1-10.5.7c-5.6-.2-11.5-1.4-16.1-4.8a21.06,21.06,0,0,1-7.8-12.1A29.43,29.43,0,0,1,9.08,33.62Z"/></svg>