<?xml version="1.0" encoding="UTF-8" standalone="no"?>
<!-- Created with Inkscape (http://www.inkscape.org/) -->

<svg
   xmlns:dc="http://purl.org/dc/elements/1.1/"
   xmlns:cc="http://creativecommons.org/ns#"
   xmlns:rdf="http://www.w3.org/1999/02/22-rdf-syntax-ns#"
   xmlns:svg="http://www.w3.org/2000/svg"
   xmlns="http://www.w3.org/2000/svg"
   xmlns:xlink="http://www.w3.org/1999/xlink"
   xmlns:sodipodi="http://sodipodi.sourceforge.net/DTD/sodipodi-0.dtd"
   xmlns:inkscape="http://www.inkscape.org/namespaces/inkscape"
   id="svg2985"
   version="1.1"
   inkscape:version="0.91 r13725"
   width="633.06604"
   height="512.50269"
   sodipodi:docname="NBC_News_2011.svg">
  <metadata
     id="metadata2991">
    <rdf:RDF>
      <cc:Work
         rdf:about="">
        <dc:format>image/svg+xml</dc:format>
        <dc:type
           rdf:resource="http://purl.org/dc/dcmitype/StillImage" />
        <dc:title />
      </cc:Work>
    </rdf:RDF>
  </metadata>
  <defs
     id="defs2989">
    <linearGradient
       id="linearGradient3211"
       inkscape:collect="always">
      <stop
         id="stop3213"
         offset="0"
         style="stop-color:#fcd414;stop-opacity:1" />
      <stop
         id="stop3215"
         offset="1"
         style="stop-color:#f6871f;stop-opacity:1" />
    </linearGradient>
    <linearGradient
       id="linearGradient3205"
       inkscape:collect="always">
      <stop
         id="stop3207"
         offset="0"
         style="stop-color:#50ba69;stop-opacity:1" />
      <stop
         id="stop3209"
         offset="1"
         style="stop-color:#0f7a3d;stop-opacity:1" />
    </linearGradient>
    <linearGradient
       id="linearGradient3199"
       inkscape:collect="always">
      <stop
         id="stop3201"
         offset="0"
         style="stop-color:#5ad1ec;stop-opacity:1" />
      <stop
         id="stop3203"
         offset="1"
         style="stop-color:#1f439c;stop-opacity:1" />
    </linearGradient>
    <linearGradient
       id="linearGradient3193"
       inkscape:collect="always">
      <stop
         id="stop3195"
         offset="0"
         style="stop-color:#f89c30;stop-opacity:1" />
      <stop
         id="stop3197"
         offset="1"
         style="stop-color:#e92224;stop-opacity:1" />
    </linearGradient>
    <linearGradient
       id="linearGradient3181"
       inkscape:collect="always">
      <stop
         id="stop3183"
         offset="0"
         style="stop-color:#ada7d2;stop-opacity:1" />
      <stop
         id="stop3185"
         offset="1"
         style="stop-color:#2a266a;stop-opacity:1" />
    </linearGradient>
    <linearGradient
       id="linearGradient3175"
       inkscape:collect="always">
      <stop
         id="stop3177"
         offset="0"
         style="stop-color:#e4326e;stop-opacity:1" />
      <stop
         id="stop3179"
         offset="1"
         style="stop-color:#a01d20;stop-opacity:1" />
    </linearGradient>
    <linearGradient
       inkscape:collect="always"
       id="linearGradient3113">
      <stop
         style="stop-color:white;stop-opacity:1;"
         offset="0"
         id="stop3115" />
      <stop
         style="stop-color:black;stop-opacity:1"
         offset="1"
         id="stop3117" />
    </linearGradient>
    <radialGradient
       inkscape:collect="always"
       xlink:href="#linearGradient3113"
       id="radialGradient3119"
       cx="313.71097"
       cy="303.57391"
       fx="313.71097"
       fy="303.57391"
       r="304.51389"
       gradientTransform="matrix(-2.2104443e-7,0.64805571,-0.66355323,-1.6088591e-8,515.14848,48.258514)"
       gradientUnits="userSpaceOnUse" />
    <radialGradient
       inkscape:collect="always"
       xlink:href="#linearGradient3113"
       id="radialGradient3145"
       gradientUnits="userSpaceOnUse"
       gradientTransform="matrix(-2.2104443e-7,0.64805571,-0.66355323,-1.6088591e-8,515.14848,48.258514)"
       cx="313.71097"
       cy="303.57391"
       fx="313.71097"
       fy="303.57391"
       r="304.51389" />
    <radialGradient
       inkscape:collect="always"
       xlink:href="#linearGradient3113"
       id="radialGradient3147"
       gradientUnits="userSpaceOnUse"
       gradientTransform="matrix(-2.2104443e-7,0.64805571,-0.66355323,-1.6088591e-8,515.14848,48.258514)"
       cx="313.71097"
       cy="303.57391"
       fx="313.71097"
       fy="303.57391"
       r="304.51389" />
    <radialGradient
       inkscape:collect="always"
       xlink:href="#linearGradient3113"
       id="radialGradient3149"
       gradientUnits="userSpaceOnUse"
       gradientTransform="matrix(-2.2104443e-7,0.64805571,-0.66355323,-1.6088591e-8,515.14848,48.258514)"
       cx="313.71097"
       cy="303.57391"
       fx="313.71097"
       fy="303.57391"
       r="304.51389" />
    <radialGradient
       inkscape:collect="always"
       xlink:href="#linearGradient3113"
       id="radialGradient3151"
       gradientUnits="userSpaceOnUse"
       gradientTransform="matrix(-2.2104443e-7,0.64805571,-0.66355323,-1.6088591e-8,515.14848,48.258514)"
       cx="313.71097"
       cy="303.57391"
       fx="313.71097"
       fy="303.57391"
       r="304.51389" />
    <radialGradient
       inkscape:collect="always"
       xlink:href="#linearGradient3113"
       id="radialGradient3153"
       gradientUnits="userSpaceOnUse"
       gradientTransform="matrix(-2.2104443e-7,0.64805571,-0.66355323,-1.6088591e-8,515.14848,48.258514)"
       cx="313.71097"
       cy="303.57391"
       fx="313.71097"
       fy="303.57391"
       r="304.51389" />
    <radialGradient
       inkscape:collect="always"
       xlink:href="#linearGradient3113"
       id="radialGradient3155"
       gradientUnits="userSpaceOnUse"
       gradientTransform="matrix(-2.2104443e-7,0.64805571,-0.66355323,-1.6088591e-8,515.14848,48.258514)"
       cx="313.71097"
       cy="303.57391"
       fx="313.71097"
       fy="303.57391"
       r="304.51389" />
    <radialGradient
       inkscape:collect="always"
       xlink:href="#linearGradient3211"
       id="radialGradient3158"
       gradientUnits="userSpaceOnUse"
       gradientTransform="matrix(-2.2104443e-7,0.64805571,-0.66355323,-1.6088591e-8,515.14848,48.258514)"
       cx="313.71097"
       cy="303.57391"
       fx="313.71097"
       fy="303.57391"
       r="304.51389" />
    <radialGradient
       inkscape:collect="always"
       xlink:href="#linearGradient3205"
       id="radialGradient3161"
       gradientUnits="userSpaceOnUse"
       gradientTransform="matrix(-2.2104443e-7,0.64805571,-0.66355323,-1.6088591e-8,515.14848,48.258514)"
       cx="313.71097"
       cy="303.57391"
       fx="313.71097"
       fy="303.57391"
       r="304.51389" />
    <radialGradient
       inkscape:collect="always"
       xlink:href="#linearGradient3199"
       id="radialGradient3164"
       gradientUnits="userSpaceOnUse"
       gradientTransform="matrix(-2.2104443e-7,0.64805571,-0.66355323,-1.6088591e-8,515.14848,48.258514)"
       cx="313.71097"
       cy="303.57391"
       fx="313.71097"
       fy="303.57391"
       r="304.51389" />
    <radialGradient
       inkscape:collect="always"
       xlink:href="#linearGradient3181"
       id="radialGradient3167"
       gradientUnits="userSpaceOnUse"
       gradientTransform="matrix(-2.2104443e-7,0.64805571,-0.66355323,-1.6088591e-8,515.14848,48.258514)"
       cx="313.71097"
       cy="303.57391"
       fx="313.71097"
       fy="303.57391"
       r="304.51389" />
    <radialGradient
       inkscape:collect="always"
       xlink:href="#linearGradient3175"
       id="radialGradient3170"
       gradientUnits="userSpaceOnUse"
       gradientTransform="matrix(-2.2104443e-7,0.64805571,-0.66355323,-1.6088591e-8,515.14848,48.258514)"
       cx="313.71097"
       cy="303.57391"
       fx="313.71097"
       fy="303.57391"
       r="304.51389" />
    <radialGradient
       inkscape:collect="always"
       xlink:href="#linearGradient3193"
       id="radialGradient3173"
       gradientUnits="userSpaceOnUse"
       gradientTransform="matrix(-2.2104443e-7,0.64805571,-0.66355323,-1.6088591e-8,515.14848,48.258514)"
       cx="313.71097"
       cy="303.57391"
       fx="313.71097"
       fy="303.57391"
       r="304.51389" />
    <radialGradient
       inkscape:collect="always"
       xlink:href="#linearGradient3193"
       id="radialGradient3256"
       gradientUnits="userSpaceOnUse"
       gradientTransform="matrix(-2.2104443e-7,0.64805571,-0.66355323,-1.6088591e-8,515.14848,48.258514)"
       cx="313.71097"
       cy="303.57391"
       fx="313.71097"
       fy="303.57391"
       r="304.51389" />
    <radialGradient
       inkscape:collect="always"
       xlink:href="#linearGradient3175"
       id="radialGradient3258"
       gradientUnits="userSpaceOnUse"
       gradientTransform="matrix(-2.2104443e-7,0.64805571,-0.66355323,-1.6088591e-8,515.14848,48.258514)"
       cx="313.71097"
       cy="303.57391"
       fx="313.71097"
       fy="303.57391"
       r="304.51389" />
    <radialGradient
       inkscape:collect="always"
       xlink:href="#linearGradient3181"
       id="radialGradient3260"
       gradientUnits="userSpaceOnUse"
       gradientTransform="matrix(-2.2104443e-7,0.64805571,-0.66355323,-1.6088591e-8,515.14848,48.258514)"
       cx="313.71097"
       cy="303.57391"
       fx="313.71097"
       fy="303.57391"
       r="304.51389" />
    <radialGradient
       inkscape:collect="always"
       xlink:href="#linearGradient3199"
       id="radialGradient3262"
       gradientUnits="userSpaceOnUse"
       gradientTransform="matrix(-2.2104443e-7,0.64805571,-0.66355323,-1.6088591e-8,515.14848,48.258514)"
       cx="313.71097"
       cy="303.57391"
       fx="313.71097"
       fy="303.57391"
       r="304.51389" />
    <radialGradient
       inkscape:collect="always"
       xlink:href="#linearGradient3205"
       id="radialGradient3264"
       gradientUnits="userSpaceOnUse"
       gradientTransform="matrix(-2.2104443e-7,0.64805571,-0.66355323,-1.6088591e-8,515.14848,48.258514)"
       cx="313.71097"
       cy="303.57391"
       fx="313.71097"
       fy="303.57391"
       r="304.51389" />
    <radialGradient
       inkscape:collect="always"
       xlink:href="#linearGradient3211"
       id="radialGradient3266"
       gradientUnits="userSpaceOnUse"
       gradientTransform="matrix(-2.2104443e-7,0.64805571,-0.66355323,-1.6088591e-8,515.14848,48.258514)"
       cx="313.71097"
       cy="303.57391"
       fx="313.71097"
       fy="303.57391"
       r="304.51389" />
    <radialGradient
       inkscape:collect="always"
       xlink:href="#linearGradient3211"
       id="radialGradient3269"
       gradientUnits="userSpaceOnUse"
       gradientTransform="matrix(-2.2104443e-7,0.64805571,-0.66355323,-1.6088591e-8,515.14848,48.258514)"
       cx="313.71097"
       cy="303.57391"
       fx="313.71097"
       fy="303.57391"
       r="304.51389" />
    <radialGradient
       inkscape:collect="always"
       xlink:href="#linearGradient3205"
       id="radialGradient3272"
       gradientUnits="userSpaceOnUse"
       gradientTransform="matrix(-2.2104443e-7,0.64805571,-0.66355323,-1.6088591e-8,515.14848,48.258514)"
       cx="313.71097"
       cy="303.57391"
       fx="313.71097"
       fy="303.57391"
       r="304.51389" />
    <radialGradient
       inkscape:collect="always"
       xlink:href="#linearGradient3199"
       id="radialGradient3275"
       gradientUnits="userSpaceOnUse"
       gradientTransform="matrix(-2.2104443e-7,0.64805571,-0.66355323,-1.6088591e-8,515.14848,48.258514)"
       cx="313.71097"
       cy="303.57391"
       fx="313.71097"
       fy="303.57391"
       r="304.51389" />
    <radialGradient
       inkscape:collect="always"
       xlink:href="#linearGradient3181"
       id="radialGradient3278"
       gradientUnits="userSpaceOnUse"
       gradientTransform="matrix(-2.2104443e-7,0.64805571,-0.66355323,-1.6088591e-8,515.14848,48.258514)"
       cx="313.71097"
       cy="303.57391"
       fx="313.71097"
       fy="303.57391"
       r="304.51389" />
    <radialGradient
       inkscape:collect="always"
       xlink:href="#linearGradient3175"
       id="radialGradient3281"
       gradientUnits="userSpaceOnUse"
       gradientTransform="matrix(-2.2104443e-7,0.64805571,-0.66355323,-1.6088591e-8,515.14848,48.258514)"
       cx="313.71097"
       cy="303.57391"
       fx="313.71097"
       fy="303.57391"
       r="304.51389" />
    <radialGradient
       inkscape:collect="always"
       xlink:href="#linearGradient3193"
       id="radialGradient3284"
       gradientUnits="userSpaceOnUse"
       gradientTransform="matrix(-2.2104443e-7,0.64805571,-0.66355323,-1.6088591e-8,515.14848,48.258514)"
       cx="313.71097"
       cy="303.57391"
       fx="313.71097"
       fy="303.57391"
       r="304.51389" />
    <radialGradient
       inkscape:collect="always"
       xlink:href="#linearGradient3193"
       id="radialGradient3303"
       gradientUnits="userSpaceOnUse"
       gradientTransform="matrix(-2.2104443e-7,0.64805571,-0.66355323,-1.6088591e-8,515.1679,47.975274)"
       cx="313.71097"
       cy="303.57391"
       fx="313.71097"
       fy="303.57391"
       r="304.51389" />
    <radialGradient
       inkscape:collect="always"
       xlink:href="#linearGradient3175"
       id="radialGradient3305"
       gradientUnits="userSpaceOnUse"
       gradientTransform="matrix(-2.2104443e-7,0.64805571,-0.66355323,-1.6088591e-8,515.1679,47.975274)"
       cx="313.71097"
       cy="303.57391"
       fx="313.71097"
       fy="303.57391"
       r="304.51389" />
    <radialGradient
       inkscape:collect="always"
       xlink:href="#linearGradient3181"
       id="radialGradient3307"
       gradientUnits="userSpaceOnUse"
       gradientTransform="matrix(-2.2104443e-7,0.64805571,-0.66355323,-1.6088591e-8,515.1679,47.975274)"
       cx="313.71097"
       cy="303.57391"
       fx="313.71097"
       fy="303.57391"
       r="304.51389" />
    <radialGradient
       inkscape:collect="always"
       xlink:href="#linearGradient3199"
       id="radialGradient3309"
       gradientUnits="userSpaceOnUse"
       gradientTransform="matrix(-2.2104443e-7,0.64805571,-0.66355323,-1.6088591e-8,515.1679,47.975274)"
       cx="313.71097"
       cy="303.57391"
       fx="313.71097"
       fy="303.57391"
       r="304.51389" />
    <radialGradient
       inkscape:collect="always"
       xlink:href="#linearGradient3205"
       id="radialGradient3311"
       gradientUnits="userSpaceOnUse"
       gradientTransform="matrix(-2.2104443e-7,0.64805571,-0.66355323,-1.6088591e-8,515.1679,47.975274)"
       cx="313.71097"
       cy="303.57391"
       fx="313.71097"
       fy="303.57391"
       r="304.51389" />
    <radialGradient
       inkscape:collect="always"
       xlink:href="#linearGradient3211"
       id="radialGradient3313"
       gradientUnits="userSpaceOnUse"
       gradientTransform="matrix(-2.2104443e-7,0.64805571,-0.66355323,-1.6088591e-8,515.1679,47.975274)"
       cx="313.71097"
       cy="303.57391"
       fx="313.71097"
       fy="303.57391"
       r="304.51389" />
    <radialGradient
       inkscape:collect="always"
       xlink:href="#linearGradient3211"
       id="radialGradient3330"
       gradientUnits="userSpaceOnUse"
       gradientTransform="matrix(-2.2104443e-7,0.64805571,-0.66355323,-1.6088591e-8,515.14848,48.258514)"
       cx="313.71097"
       cy="303.57391"
       fx="313.71097"
       fy="303.57391"
       r="304.51389" />
    <radialGradient
       inkscape:collect="always"
       xlink:href="#linearGradient3205"
       id="radialGradient3333"
       gradientUnits="userSpaceOnUse"
       gradientTransform="matrix(-2.2104443e-7,0.64805571,-0.66355323,-1.6088591e-8,515.14848,48.258514)"
       cx="313.71097"
       cy="303.57391"
       fx="313.71097"
       fy="303.57391"
       r="304.51389" />
    <radialGradient
       inkscape:collect="always"
       xlink:href="#linearGradient3199"
       id="radialGradient3336"
       gradientUnits="userSpaceOnUse"
       gradientTransform="matrix(-2.2104443e-7,0.64805571,-0.66355323,-1.6088591e-8,515.14848,48.258514)"
       cx="313.71097"
       cy="303.57391"
       fx="313.71097"
       fy="303.57391"
       r="304.51389" />
    <radialGradient
       inkscape:collect="always"
       xlink:href="#linearGradient3181"
       id="radialGradient3339"
       gradientUnits="userSpaceOnUse"
       gradientTransform="matrix(-2.2104443e-7,0.64805571,-0.66355323,-1.6088591e-8,515.14848,48.258514)"
       cx="313.71097"
       cy="303.57391"
       fx="313.71097"
       fy="303.57391"
       r="304.51389" />
    <radialGradient
       inkscape:collect="always"
       xlink:href="#linearGradient3175"
       id="radialGradient3342"
       gradientUnits="userSpaceOnUse"
       gradientTransform="matrix(-2.2104443e-7,0.64805571,-0.66355323,-1.6088591e-8,515.14848,48.258514)"
       cx="313.71097"
       cy="303.57391"
       fx="313.71097"
       fy="303.57391"
       r="304.51389" />
    <radialGradient
       inkscape:collect="always"
       xlink:href="#linearGradient3193"
       id="radialGradient3345"
       gradientUnits="userSpaceOnUse"
       gradientTransform="matrix(-2.2104443e-7,0.64805571,-0.66355323,-1.6088591e-8,515.14848,48.258514)"
       cx="313.71097"
       cy="303.57391"
       fx="313.71097"
       fy="303.57391"
       r="304.51389" />
    <radialGradient
       inkscape:collect="always"
       xlink:href="#linearGradient3193"
       id="radialGradient3364"
       gradientUnits="userSpaceOnUse"
       gradientTransform="matrix(-2.2104443e-7,0.64805571,-0.66355323,-1.6088591e-8,515.14848,48.258514)"
       cx="313.71097"
       cy="303.57391"
       fx="313.71097"
       fy="303.57391"
       r="304.51389" />
    <radialGradient
       inkscape:collect="always"
       xlink:href="#linearGradient3175"
       id="radialGradient3366"
       gradientUnits="userSpaceOnUse"
       gradientTransform="matrix(-2.2104443e-7,0.64805571,-0.66355323,-1.6088591e-8,515.14848,48.258514)"
       cx="313.71097"
       cy="303.57391"
       fx="313.71097"
       fy="303.57391"
       r="304.51389" />
    <radialGradient
       inkscape:collect="always"
       xlink:href="#linearGradient3181"
       id="radialGradient3368"
       gradientUnits="userSpaceOnUse"
       gradientTransform="matrix(-2.2104443e-7,0.64805571,-0.66355323,-1.6088591e-8,515.14848,48.258514)"
       cx="313.71097"
       cy="303.57391"
       fx="313.71097"
       fy="303.57391"
       r="304.51389" />
    <radialGradient
       inkscape:collect="always"
       xlink:href="#linearGradient3199"
       id="radialGradient3370"
       gradientUnits="userSpaceOnUse"
       gradientTransform="matrix(-2.2104443e-7,0.64805571,-0.66355323,-1.6088591e-8,515.14848,48.258514)"
       cx="313.71097"
       cy="303.57391"
       fx="313.71097"
       fy="303.57391"
       r="304.51389" />
    <radialGradient
       inkscape:collect="always"
       xlink:href="#linearGradient3205"
       id="radialGradient3372"
       gradientUnits="userSpaceOnUse"
       gradientTransform="matrix(-2.2104443e-7,0.64805571,-0.66355323,-1.6088591e-8,515.14848,48.258514)"
       cx="313.71097"
       cy="303.57391"
       fx="313.71097"
       fy="303.57391"
       r="304.51389" />
    <radialGradient
       inkscape:collect="always"
       xlink:href="#linearGradient3211"
       id="radialGradient3374"
       gradientUnits="userSpaceOnUse"
       gradientTransform="matrix(-2.2104443e-7,0.64805571,-0.66355323,-1.6088591e-8,515.14848,48.258514)"
       cx="313.71097"
       cy="303.57391"
       fx="313.71097"
       fy="303.57391"
       r="304.51389" />
  </defs>
  <sodipodi:namedview
     pagecolor="#ffffff"
     bordercolor="#666666"
     borderopacity="1"
     objecttolerance="10"
     gridtolerance="10"
     guidetolerance="10"
     inkscape:pageopacity="0"
     inkscape:pageshadow="2"
     inkscape:window-width="1366"
     inkscape:window-height="705"
     id="namedview2987"
     showgrid="false"
     inkscape:zoom="0.71044638"
     inkscape:cx="360.14364"
     inkscape:cy="248.6492"
     inkscape:window-x="-8"
     inkscape:window-y="-8"
     inkscape:window-maximized="1"
     inkscape:current-layer="svg2985"
     fit-margin-top="0"
     fit-margin-left="0"
     fit-margin-right="0"
     fit-margin-bottom="0" />
  <g
     id="g3348"
     transform="matrix(0.99777659,0,0,0.99724778,1.4075658,1.4075658)">
    <path
       id="path2996"
       d="M 316.5093,47.502647 C 306.64206,23.265976 282.60067,-2.9120817 237.56918,0.68364897 180.21254,6.8167691 162.33373,60.888582 171.00312,93.144985 148.15735,77.929413 109.31289,71.237537 75.404256,99.80618 31.62395,142.97248 55.038635,201.34996 79.111137,215.35381 52.587383,212.93694 10.664961,230.56719 1.3910919,276.68063 c -9.8672367,57.2556 34.5086601,90.63389 77.7200451,90.63389 l 479.138793,0 c 49.96733,0 77.68893,-42.51552 74.57986,-82.61416 -4.90472,-52.33201 -53.58976,-72.41201 -80.1424,-68.10853 22.18795,-12.1764 51.82077,-69.37284 6.75817,-114.34029 C 523.68127,68.787795 478.08085,80.964201 462.05104,95.559668 470.69154,67.606748 456.51961,9.8208804 398.50737,0.67926661 394.50047,0.2388389 390.64025,0 386.96004,0 342.67303,0.006574 322.76077,31.846647 316.5093,47.502647"
       style="fill:#ffffff"
       inkscape:connector-curvature="0" />
    <path
       inkscape:connector-curvature="0"
       style="fill:url(#radialGradient3364);fill-opacity:1"
       d="M 83.384717,108.91712 C 58.089923,131.44247 48.87828,182.4795 94.480914,212.31464 L 276.40921,335.08222 188.19744,136.3069 C 169.71415,89.400254 119.14901,79.169622 83.384717,108.91712"
       id="path3085" />
    <path
       inkscape:connector-curvature="0"
       style="fill:url(#radialGradient3366);fill-opacity:1"
       d="m 239.9871,12.270622 c -29.57504,0.591619 -73.97983,35.232025 -54.21424,88.124988 L 277.0048,312.03098 309.05998,89.430931 C 316.47819,34.118904 273.92684,8.5850534 239.9871,12.270622"
       id="path3087" />
    <path
       inkscape:connector-curvature="0"
       style="fill:url(#radialGradient3368);fill-opacity:1"
       d="m 323.29858,80.940098 17.25211,0 c 0,0 9.21164,0 10.46282,4.274997 -6.78705,5.453854 -25.26368,6.135312 -22.81465,35.262705 l 29.0039,191.5225 90.60746,-212.191929 c 18.53662,-47.377754 -20.36785,-86.94613 -54.87428,-88.155662 -1.61343,-0.116133 -3.22908,-0.208163 -4.90251,-0.208163 -30.97734,0 -66.46828,22.144092 -64.73485,69.495552"
       id="path3089" />
    <path
       inkscape:connector-curvature="0"
       style="fill:url(#radialGradient3370);fill-opacity:1"
       d="M 444.16556,138.10805 358.46283,334.49937 540.33112,211.0832 c 41.92686,-29.24791 35.16647,-76.00994 11.69623,-99.12472 -9.84057,-10.87922 -27.90161,-19.282408 -47.03605,-19.282408 -22.6102,-0.0044 -46.80048,11.790758 -60.82574,45.431978"
       id="path3091" />
    <path
       inkscape:connector-curvature="0"
       style="fill:url(#radialGradient3372);fill-opacity:1"
       d="m 519.96994,239.02954 -170.80098,117.34659 210.30549,0 c 43.14693,0 70.87076,-43.75791 58.54782,-83.91353 -8.25381,-25.23804 -32.68411,-45.05071 -61.03241,-45.0792 -11.9318,0.002 -24.58364,3.53876 -37.01992,11.64614"
       id="path3093" />
    <path
       inkscape:connector-curvature="0"
       style="fill:url(#radialGradient3374);fill-opacity:1"
       d="m 78.482212,356.37613 207.198638,0 L 114.84209,239.02954 C 75.370921,214.08512 30.995024,228.68058 14.969654,270.07202 1.3910919,317.45635 35.30194,356.37613 78.482212,356.37613"
       id="path3095" />
  </g>
  <g
     transform="matrix(0.78894199,0,0,0.83045903,-109.045,-87.712855)"
     id="g4">
    <path
       id="path3124"
       inkscape:connector-curvature="0"
       sodipodi:nodetypes="ccccccccccccccc"
       d="m 867.533,711.045 0,-30.429 c 0,0 15.677,12.905 32.626,12.905 8.854,0 13.537,-4.688 13.537,-12.303 0,-11.701 -11.632,-15.41 -23.087,-21.199 -11.944,-6.45 -25.377,-17.41 -25.377,-37.424 0,-22.249 16.711,-37.851 40.08,-37.851 16.837,0 26.85,7.191 26.85,7.191 l 0,28.928 c 0,0 -13.156,-10.664 -26.81,-10.664 -8.837,0 -14.19,4.356 -14.19,11.663 0,9.989 10.189,14.304 21.137,19.623 17.544,8.561 27.49,18.323 27.49,38.313 0,21.929 -15.155,40.927 -40.652,40.927 -17.885,0.002 -31.604,-9.68 -31.604,-9.68 l 0,0 z" />
    <path
       id="path3010-2"
       inkscape:connector-curvature="0"
       d="m 283.544,661.49 22.706,0 c 5.22,0.329 14.473,4.89 14.473,15.69 0,11.298 -9.601,15.855 -14.805,16.366 l -22.375,0 10e-4,-32.056 m -0.344,-50.291 18.69,0 c 6.387,0.348 13.941,5.07 13.941,13.841 0,8.605 -5.71,14.336 -13.102,15.361 l -19.529,0 0,-29.202 m -25.554,-20.927 0,124.186 60.215,0 c 14.291,0 31.285,-14.337 31.285,-33.065 0,-19.572 -12.777,-29.184 -20.863,-33.064 0,0 14.804,-8.605 14.147,-27.169 -0.675,-24.974 -23.729,-30.887 -31.634,-30.887 l -53.15,0" />
    <polygon
       id="polygon3012-4"
       points="140.295,585.222 140.295,714.457 166.542,714.457 166.542,642.928 244.59,719.179 244.59,590.272 218.363,590.272 218.363,659.969 " />
    <path
       id="path3014-8"
       inkscape:connector-curvature="0"
       d="m 354.616,650.866 c 0.658,39.541 28.855,69.11 65.106,69.11 8.596,0 17.65,-1.64 26.905,-5.232 l 0,-25.479 c -7.335,4.516 -15.496,6.692 -23.492,6.692 -21.938,0 -42.636,-16.354 -41.78,-46.104 1.479,-24.132 21.084,-40.795 42.218,-40.795 7.738,0 15.697,2.246 23.052,7.151 l 0,-24.796 c -8.577,-3.503 -17.101,-5.068 -25.314,-5.068 -36.159,-10e-4 -66.002,30.733 -66.695,64.521" />
    <polygon
       id="polygon3229-6"
       points="525.342,643.199 603.391,719.806 603.391,590.294 577.162,590.294 577.162,660.32 499.095,585.222 499.095,715.062 525.342,715.062 " />
    <path
       id="path3231-5"
       inkscape:connector-curvature="0"
       sodipodi:nodetypes="ccccccccccccc"
       d="m 614.146,589.385 68.304,0 0,21.613 -41.954,0 0,30.323 41.954,0 0,20.969 -42.188,0 0,31.816 41.97,0 0,21.412 -68.086,0 0,-126.133 z" />
    <path
       id="path3233-2"
       inkscape:connector-curvature="0"
       d="m 689.99,589.707 59.976,131.752 25.643,-57.34 26.114,57.34 58.717,-131.313 -28.71,0 -32.17,73.854 -11.327,-28.07 20.451,-45.783 -25.643,0 -6.922,15.874 -6.567,-16.313 -27.845,0 21.237,46.583 -12.074,27.709 -33.075,-74.293 -27.805,0 0,0 z" />
  </g>
</svg>
