<?xml version="1.0" encoding="utf-8"?>
<!-- Generator: Adobe Illustrator 22.1.0, SVG Export Plug-In . SVG Version: 6.00 Build 0)  -->
<svg version="1.1" id="Layer_1" xmlns="http://www.w3.org/2000/svg" xmlns:xlink="http://www.w3.org/1999/xlink" x="0px" y="0px"
	 viewBox="0 0 512 66" style="enable-background:new 0 0 512 66;" xml:space="preserve">
<style type="text/css">
	.st0{fill:#B7B7B7;}
</style>
<g>
	<g>
		<g>
			<path class="st0" d="M20.6,3.5h11.9c7.6,0,12.7,0.4,15.2,1.1c2.5,0.7,4.1,1.9,5,3.5c0.9,1.6,1.1,3.4,0.8,5.3
				c-0.3,2-1.4,5.8-3.4,11.6l-7.2,21.3c-1.8,5.5-3.3,9.1-4.5,10.9c-1.1,1.8-2.5,3.3-4.2,4.3c-1.6,1-3.5,1.8-5.5,2.2
				c-2,0.4-4.9,0.6-8.7,0.6H0L20.6,3.5z M32.9,13.9l-13.5,40c2.3,0,3.8-0.5,4.7-1.4c0.8-0.9,1.9-3.4,3.3-7.4l8-23.6
				c0.9-2.8,1.4-4.5,1.5-5.3c0.1-0.8-0.1-1.3-0.6-1.7C35.7,14,34.6,13.9,32.9,13.9z"/>
			<path class="st0" d="M63.2,3.5h11.2c7.5,0,12.4,0.3,14.9,0.9c2.5,0.6,4.1,2,5,4.4c0.9,2.4,0.4,6.1-1.3,11.3
				c-1.6,4.7-3.3,7.9-5,9.5c-1.7,1.6-4.4,2.6-8,2.9c2.9,0.8,4.6,1.8,5.3,3.1c0.6,1.3,0.9,2.5,0.8,3.6c-0.1,1.1-1,4.1-2.6,9l-5.4,16
				H63.2L70.1,44c1.1-3.3,1.5-5.3,1.3-6c-0.3-0.8-1.5-1.2-3.7-1.2l-9.3,27.4H42.6L63.2,3.5z M75.5,13.9l-4.6,13.5
				c1.8,0,3.1-0.2,4-0.7c0.9-0.5,1.8-2.1,2.7-4.7l1.1-3.3c0.7-1.9,0.7-3.2,0.2-3.8C78.5,14.2,77.3,13.9,75.5,13.9z"/>
			<path class="st0" d="M140.7,3.5l-13.8,40.6c-1.6,4.6-2.8,7.8-3.7,9.7c-0.9,1.9-2.5,3.8-4.6,5.7c-2.1,2-4.6,3.5-7.4,4.5
				c-2.8,1-5.8,1.5-9.1,1.5c-3.6,0-6.6-0.6-9-1.8c-2.4-1.2-3.9-2.8-4.7-4.7c-0.7-1.9-0.9-4-0.4-6.1c0.5-2.1,1.9-6.6,4.2-13.5
				l12.2-36h15.8L104.8,49c-0.9,2.7-1.3,4.3-1.3,5.1c0,0.7,0.5,1.1,1.4,1.1c1,0,1.8-0.4,2.4-1.2c0.6-0.8,1.4-2.7,2.4-5.8l15.2-44.8
				H140.7z"/>
			<path class="st0" d="M146.8,3.5h11.9c7.6,0,12.7,0.4,15.2,1.1c2.5,0.7,4.1,1.9,5,3.5c0.9,1.6,1.1,3.4,0.8,5.3
				c-0.3,2-1.4,5.8-3.4,11.6L169,46.2c-1.8,5.5-3.3,9.1-4.5,10.9c-1.1,1.8-2.5,3.3-4.2,4.3c-1.6,1-3.5,1.8-5.5,2.2
				c-2,0.4-4.9,0.6-8.7,0.6h-20L146.8,3.5z M159.1,13.9l-13.5,40c2.3,0,3.8-0.5,4.7-1.4c0.8-0.9,1.9-3.4,3.3-7.4l8-23.6
				c0.9-2.8,1.4-4.5,1.5-5.3c0.1-0.8-0.1-1.3-0.6-1.7C162,14,160.9,13.9,159.1,13.9z"/>
			<path class="st0" d="M218.2,25.8h-15.8l1.9-5.5c1.2-3.5,1.8-5.7,1.8-6.5c0-0.9-0.6-1.3-1.7-1.3c-1,0-1.8,0.4-2.4,1.1
				c-0.6,0.8-1.4,2.7-2.5,5.8l-9.9,29.2c-0.9,2.7-1.4,4.5-1.3,5.4c0.1,0.9,0.6,1.3,1.7,1.3c1.2,0,2.1-0.5,2.8-1.5
				c0.7-1,1.6-2.9,2.6-5.7l2.4-7.2h-3.2l3.1-9.2h18.5l-11,32.6h-10l0-4.4c-1.7,1.9-3.6,3.3-5.5,4.2c-2,0.9-4.1,1.4-6.3,1.4
				c-2.7,0-4.9-0.6-6.8-1.9c-1.9-1.3-3.1-2.9-3.7-4.8c-0.6-1.9-0.6-3.9-0.2-6c0.4-2.1,1.3-5.2,2.7-9.4l6.1-18.1
				c2-5.8,3.7-10,5.2-12.6s4.1-5,7.8-7.2c3.7-2.2,7.9-3.3,12.6-3.3c4.6,0,8.2,1,10.6,2.9c2.4,1.9,3.6,4.2,3.7,6.8
				c0,2.6-0.8,6.4-2.5,11.4L218.2,25.8z"/>
			<path class="st0" d="M231.9,3.5h26.4l-4.1,12.2h-10.6l-3.9,11.5h9.9l-3.9,11.6h-9.9l-4.5,13.4h11.6l-4.1,12.2h-27.5L231.9,3.5z"
				/>
		</g>
		<g>
			<path class="st0" d="M275.8,3.5H287c7.5,0,12.4,0.3,14.9,0.9c2.5,0.6,4.1,2,5,4.4c0.9,2.4,0.4,6.1-1.3,11.3
				c-1.6,4.7-3.3,7.9-5,9.5c-1.7,1.6-4.4,2.6-8,2.9c2.9,0.8,4.6,1.8,5.3,3.1c0.6,1.3,0.9,2.5,0.8,3.6c-0.1,1.1-1,4.1-2.6,9l-5.4,16
				h-14.7l6.8-20.2c1.1-3.3,1.5-5.3,1.3-6c-0.3-0.8-1.5-1.2-3.7-1.2L271,64.2h-15.8L275.8,3.5z M288.1,13.9l-4.6,13.5
				c1.8,0,3.1-0.2,4-0.7c0.9-0.5,1.8-2.1,2.7-4.7l1.1-3.3c0.7-1.9,0.7-3.2,0.2-3.8C291.1,14.2,289.9,13.9,288.1,13.9z"/>
			<path class="st0" d="M317.3,3.5h26.4l-4.1,12.2H329l-3.9,11.5h9.9l-3.9,11.6h-9.9l-4.5,13.4h11.6l-4.1,12.2h-27.5L317.3,3.5z"/>
			<path class="st0" d="M349.3,3.5h16c4.3,0,7.5,0.3,9.6,1s3.5,1.7,4.2,2.9c0.7,1.3,1,2.8,0.8,4.6c-0.2,1.8-0.9,4.6-2.2,8.4
				l-1.8,5.3c-1.3,3.9-2.7,6.7-4.1,8.5c-1.4,1.8-3.3,3.1-5.8,4.1c-2.5,1-5.4,1.4-8.9,1.4h-4.3l-8.3,24.5h-15.8L349.3,3.5z
				 M361.6,13.9l-5.2,15.5c0.4,0,0.8,0,1.2,0c1.5,0,2.6-0.4,3.4-1.1c0.8-0.7,1.6-2.2,2.4-4.4l1.7-5c0.7-2.1,0.8-3.4,0.4-4.1
				C364.9,14.2,363.7,13.9,361.6,13.9z"/>
			<path class="st0" d="M412.1,39c-2.1,6.1-3.7,10.4-4.8,13c-1.1,2.5-2.8,4.9-5.1,7c-2.2,2.1-4.8,3.7-7.8,4.8
				c-3,1.1-6.2,1.7-9.6,1.7c-3.3,0-6-0.5-8.2-1.6c-2.2-1.1-3.8-2.7-4.6-4.8c-0.9-2.1-1-4.4-0.5-6.9c0.5-2.5,1.9-6.9,4-13.1l3.5-10.4
				c2.1-6.1,3.7-10.4,4.8-13c1.1-2.5,2.8-4.9,5.1-7c2.2-2.1,4.8-3.7,7.8-4.8c3-1.1,6.2-1.7,9.6-1.7c3.3,0,6,0.5,8.2,1.6
				c2.2,1.1,3.8,2.7,4.6,4.8c0.9,2.1,1,4.4,0.5,6.9c-0.5,2.5-1.9,6.9-4,13.1L412.1,39z M403,19.1c1-2.8,1.4-4.6,1.4-5.4
				c0-0.8-0.6-1.2-1.5-1.2c-0.8,0-1.6,0.3-2.2,1c-0.7,0.6-1.5,2.5-2.6,5.6l-9.6,28.4c-1.2,3.5-1.8,5.7-1.8,6.5
				c0,0.8,0.5,1.2,1.6,1.2c1.1,0,1.9-0.5,2.6-1.4c0.6-1,1.5-3.2,2.8-6.8L403,19.1z"/>
			<path class="st0" d="M430.1,3.5h11.2c7.5,0,12.4,0.3,14.9,0.9c2.5,0.6,4.1,2,5,4.4c0.9,2.4,0.4,6.1-1.3,11.3
				c-1.6,4.7-3.3,7.9-5,9.5c-1.7,1.6-4.4,2.6-8,2.9c2.9,0.8,4.6,1.8,5.3,3.1c0.6,1.3,0.9,2.5,0.8,3.6c-0.1,1.1-1,4.1-2.6,9l-5.4,16
				h-14.7L437,44c1.1-3.3,1.5-5.3,1.3-6c-0.3-0.8-1.5-1.2-3.7-1.2l-9.3,27.4h-15.8L430.1,3.5z M442.4,13.9l-4.6,13.5
				c1.8,0,3.1-0.2,4-0.7c0.9-0.5,1.8-2.1,2.7-4.7l1.1-3.3c0.7-1.9,0.7-3.2,0.2-3.8C445.4,14.2,444.2,13.9,442.4,13.9z"/>
			<path class="st0" d="M503.5,3.5l-4.1,12.2h-9.4l-16.5,48.6h-15.8l16.5-48.6h-9.4l4.1-12.2H503.5z"/>
		</g>
	</g>
	<g>
		<g>
			<path d="M29.1,1.8H41c7.6,0,12.7,0.4,15.2,1.1c2.5,0.7,4.1,1.9,5,3.5c0.9,1.6,1.1,3.4,0.8,5.3c-0.3,2-1.4,5.8-3.4,11.6l-7.2,21.3
				c-1.8,5.5-3.3,9.1-4.5,10.9c-1.1,1.8-2.5,3.3-4.2,4.3c-1.6,1-3.5,1.8-5.5,2.2c-2,0.4-4.9,0.6-8.7,0.6h-20L29.1,1.8z M41.4,12.2
				l-13.5,40c2.3,0,3.8-0.5,4.7-1.4c0.8-0.9,1.9-3.4,3.3-7.4l8-23.6c0.9-2.8,1.4-4.5,1.5-5.3c0.1-0.8-0.1-1.3-0.6-1.7
				C44.3,12.4,43.2,12.2,41.4,12.2z"/>
			<path d="M71.7,1.8h11.2c7.5,0,12.4,0.3,14.9,0.9c2.5,0.6,4.1,2,5,4.4c0.9,2.4,0.4,6.1-1.3,11.3c-1.6,4.7-3.3,7.9-5,9.5
				c-1.7,1.6-4.4,2.6-8,2.9c2.9,0.8,4.6,1.8,5.3,3.1c0.6,1.3,0.9,2.5,0.8,3.6c-0.1,1.1-1,4.1-2.6,9l-5.4,16H71.8l6.8-20.2
				c1.1-3.3,1.5-5.3,1.3-6c-0.3-0.8-1.5-1.2-3.7-1.2L67,62.5H51.1L71.7,1.8z M84,12.2l-4.6,13.5c1.8,0,3.1-0.2,4-0.7
				c0.9-0.5,1.8-2.1,2.7-4.7l1.1-3.3c0.7-1.9,0.7-3.2,0.2-3.8C87,12.5,85.8,12.2,84,12.2z"/>
			<path d="M149.2,1.8l-13.8,40.6c-1.6,4.6-2.8,7.8-3.7,9.7c-0.9,1.9-2.5,3.8-4.6,5.7c-2.1,2-4.6,3.5-7.4,4.5
				c-2.8,1-5.8,1.5-9.1,1.5c-3.6,0-6.6-0.6-9-1.8c-2.4-1.2-3.9-2.8-4.7-4.7c-0.7-1.9-0.9-4-0.4-6.1c0.5-2.1,1.9-6.6,4.2-13.5
				l12.2-36h15.8l-15.4,45.6c-0.9,2.7-1.3,4.3-1.3,5.1c0,0.7,0.5,1.1,1.4,1.1c1,0,1.8-0.4,2.4-1.2c0.6-0.8,1.4-2.7,2.4-5.8
				l15.2-44.8H149.2z"/>
			<path d="M155.3,1.8h11.9c7.6,0,12.7,0.4,15.2,1.1c2.5,0.7,4.1,1.9,5,3.5c0.9,1.6,1.1,3.4,0.8,5.3c-0.3,2-1.4,5.8-3.4,11.6
				l-7.2,21.3c-1.8,5.5-3.3,9.1-4.5,10.9c-1.1,1.8-2.5,3.3-4.2,4.3c-1.6,1-3.5,1.8-5.5,2.2c-2,0.4-4.9,0.6-8.7,0.6h-20L155.3,1.8z
				 M167.7,12.2l-13.5,40c2.3,0,3.8-0.5,4.7-1.4c0.8-0.9,1.9-3.4,3.3-7.4l8-23.6c0.9-2.8,1.4-4.5,1.5-5.3c0.1-0.8-0.1-1.3-0.6-1.7
				C170.5,12.4,169.4,12.2,167.7,12.2z"/>
			<path d="M226.7,24.1h-15.8l1.9-5.5c1.2-3.5,1.8-5.7,1.8-6.5c0-0.9-0.6-1.3-1.7-1.3c-1,0-1.8,0.4-2.4,1.1
				c-0.6,0.8-1.4,2.7-2.5,5.8L198,46.8c-0.9,2.7-1.4,4.5-1.3,5.4c0.1,0.9,0.6,1.3,1.7,1.3c1.2,0,2.1-0.5,2.8-1.5
				c0.7-1,1.6-2.9,2.6-5.7l2.4-7.2h-3.2l3.1-9.2h18.5l-11,32.6h-10l0-4.4c-1.7,1.9-3.6,3.3-5.5,4.2c-2,0.9-4.1,1.4-6.3,1.4
				c-2.7,0-4.9-0.6-6.8-1.9c-1.9-1.3-3.1-2.9-3.7-4.8c-0.6-1.9-0.6-3.9-0.2-6c0.4-2.1,1.3-5.2,2.7-9.4l6.1-18.1
				c2-5.8,3.7-10,5.2-12.6s4.1-5,7.8-7.2c3.7-2.2,7.9-3.3,12.6-3.3c4.6,0,8.2,1,10.6,2.9c2.4,1.9,3.6,4.2,3.7,6.8
				c0,2.6-0.8,6.4-2.5,11.4L226.7,24.1z"/>
			<path d="M240.4,1.8h26.4l-4.1,12.2h-10.6l-3.9,11.5h9.9L254.2,37h-9.9l-4.5,13.4h11.6l-4.1,12.2h-27.5L240.4,1.8z"/>
		</g>
		<g>
			<path d="M284.3,1.8h11.2c7.5,0,12.4,0.3,14.9,0.9c2.5,0.6,4.1,2,5,4.4c0.9,2.4,0.4,6.1-1.3,11.3c-1.6,4.7-3.3,7.9-5,9.5
				c-1.7,1.6-4.4,2.6-8,2.9c2.9,0.8,4.6,1.8,5.3,3.1c0.6,1.3,0.9,2.5,0.8,3.6c-0.1,1.1-1,4.1-2.6,9l-5.4,16h-14.7l6.8-20.2
				c1.1-3.3,1.5-5.3,1.3-6c-0.3-0.8-1.5-1.2-3.7-1.2l-9.3,27.4h-15.8L284.3,1.8z M296.6,12.2L292,25.7c1.8,0,3.1-0.2,4-0.7
				c0.9-0.5,1.8-2.1,2.7-4.7l1.1-3.3c0.7-1.9,0.7-3.2,0.2-3.8C299.6,12.5,298.5,12.2,296.6,12.2z"/>
			<path d="M325.8,1.8h26.4l-4.1,12.2h-10.6l-3.9,11.5h9.9L339.6,37h-9.9l-4.5,13.4h11.6l-4.1,12.2h-27.5L325.8,1.8z"/>
			<path d="M357.8,1.8h16c4.3,0,7.5,0.3,9.6,1c2.1,0.7,3.5,1.7,4.2,2.9c0.7,1.3,1,2.8,0.8,4.6c-0.2,1.8-0.9,4.6-2.2,8.4l-1.8,5.3
				c-1.3,3.9-2.7,6.7-4.1,8.5c-1.4,1.8-3.3,3.1-5.8,4.1c-2.5,1-5.4,1.4-8.9,1.4h-4.3l-8.3,24.5h-15.8L357.8,1.8z M370.1,12.2
				l-5.2,15.5c0.4,0,0.8,0,1.2,0c1.5,0,2.6-0.4,3.4-1.1c0.8-0.7,1.6-2.2,2.4-4.4l1.7-5c0.7-2.1,0.8-3.4,0.4-4.1
				C373.4,12.5,372.2,12.2,370.1,12.2z"/>
			<path d="M420.6,37.4c-2.1,6.1-3.7,10.4-4.8,13c-1.1,2.5-2.8,4.9-5.1,7c-2.2,2.1-4.8,3.7-7.8,4.8c-3,1.1-6.2,1.7-9.6,1.7
				c-3.3,0-6-0.5-8.2-1.6c-2.2-1.1-3.8-2.7-4.6-4.8c-0.9-2.1-1-4.4-0.5-6.9c0.5-2.5,1.9-6.9,4-13.1l3.5-10.4
				c2.1-6.1,3.7-10.4,4.8-13c1.1-2.5,2.8-4.9,5.1-7c2.2-2.1,4.8-3.7,7.8-4.8c3-1.1,6.2-1.7,9.6-1.7c3.3,0,6,0.5,8.2,1.6
				c2.2,1.1,3.8,2.7,4.6,4.8c0.9,2.1,1,4.4,0.5,6.9c-0.5,2.5-1.9,6.9-4,13.1L420.6,37.4z M411.6,17.4c1-2.8,1.4-4.6,1.4-5.4
				c0-0.8-0.6-1.2-1.5-1.2c-0.8,0-1.6,0.3-2.2,1c-0.7,0.6-1.5,2.5-2.6,5.6L397,45.8c-1.2,3.5-1.8,5.7-1.8,6.5c0,0.8,0.5,1.2,1.6,1.2
				c1.1,0,1.9-0.5,2.6-1.4c0.6-1,1.5-3.2,2.8-6.8L411.6,17.4z"/>
			<path d="M438.6,1.8h11.2c7.5,0,12.4,0.3,14.9,0.9c2.5,0.6,4.1,2,5,4.4c0.9,2.4,0.4,6.1-1.3,11.3c-1.6,4.7-3.3,7.9-5,9.5
				c-1.7,1.6-4.4,2.6-8,2.9c2.9,0.8,4.6,1.8,5.3,3.1c0.6,1.3,0.9,2.5,0.8,3.6c-0.1,1.1-1,4.1-2.6,9l-5.4,16h-14.7l6.8-20.2
				c1.1-3.3,1.5-5.3,1.3-6c-0.3-0.8-1.5-1.2-3.7-1.2l-9.3,27.4H418L438.6,1.8z M450.9,12.2l-4.6,13.5c1.8,0,3.1-0.2,4-0.7
				c0.9-0.5,1.8-2.1,2.7-4.7l1.1-3.3c0.7-1.9,0.7-3.2,0.2-3.8C453.9,12.5,452.7,12.2,450.9,12.2z"/>
			<path d="M512,1.8l-4.1,12.2h-9.4L482,62.5h-15.8l16.5-48.6h-9.4l4.1-12.2H512z"/>
		</g>
	</g>
</g>
</svg>
