<svg xmlns="http://www.w3.org/2000/svg" viewBox="0 0 119.62 67.36"><defs><style>.a{fill:#1c1c21;}</style></defs><path class="a" d="M114.88,6.57c0-2.7.68-3.57,2.61-4.06l2.13-.58V.19h-20V1.93l2.42.58c1.93.49,3,1.16,3,4V53c0,6.48-.59,11.7-5.42,11.7-3.09,0-5.41-2.42-5.31-4.16.29-3,5.31-2.8,5.7-7.63.29-3.48-1.93-4.93-4-5.22-3-.39-6.67,2.12-6.77,7.15-.1,6.47,4.16,12.37,11.41,12.37,8,0,14.2-5.41,14.2-15.75V6.57ZM87.27,49.68c0-19.82-21.75-25-21.75-39.44,0-3.09,1.16-7.73,6-7.73,7,0,9.56,9,10.72,19.91h1.84V.39H82.92c-.48,2.12-1.35,3.09-2.61,3.09C78.09,3.48,76.93,0,71.61,0,63.4,0,57.79,6.86,57.79,15.85c0,16.33,21.75,23.19,21.75,38.27,0,6.86-3.19,10.73-7.54,10.73-6.48,0-10.73-7.63-11.89-19.91H58.27V67h1.16c1-3.19,2.23-3.48,3.29-3.48,1.84,0,3.77,3.86,9.38,3.86,8.6,0,15.17-7.44,15.17-17.68M18,67h4l9-47.55H29.57L39.43,67h3.48L54.7,10.92C56,5,56.64,3,59,2.42l1.83-.49V.19H47.16V1.93l2,.39c2.9.58,3.58,2.32,2.23,9.47l-7.64,37.6h1.16L37.21,9.76C36.44,6,36,2.9,39.14,2.32l2.13-.39V.19H22.62V1.93l1.25.29c1.94.49,2.23,1.65,3,5.32l3,14.4-.58-8.7L22.62,48.42h.87L15.66,9.76c-.87-4-1.16-7,1.93-7.54L19,1.93V.19H0V1.93l1.84.49c1.73.48,2.7,1.35,3.86,6.66L18,67Z"/></svg>