<svg xmlns="http://www.w3.org/2000/svg" viewBox="0 0 129.79 99.06"><defs><style>.a{fill:#8ed500;}</style></defs><path class="a" d="M80.93,0c-17.82,0-33,8.18-41.52,20.7-.71,1-1.91,3.27-3.53,3.28-7.8.06-8.28-9.55-8.53-18.11A2.4,2.4,0,0,0,25,3.57L2.4,3.45A2.39,2.39,0,0,0,0,5.88C.5,26.82,4.35,41,29.72,46.69a3.05,3.05,0,0,1,2.36,3v47a2.36,2.36,0,0,0,2.38,2.37H56.39a2.39,2.39,0,0,0,2.39-2.38V48.12c0-10.78,7.65-23,22.15-23,13.82,0,22.16,12.25,22.16,23V96.68a2.39,2.39,0,0,0,2.39,2.38H127.4a2.39,2.39,0,0,0,2.39-2.38V44.52C129.79,19.58,108.51,0,80.93,0Z"/></svg>