<svg xmlns="http://www.w3.org/2000/svg" viewBox="0 0 58.01 58.01"><defs><style>.a{fill:#041e42;}.b{fill:#ffc220;}</style></defs><rect class="a" width="58.01" height="58.01"/><path class="b" d="M28.33,7.24c-1.72,0-3.08.95-3.08,2.12l1,11.77a1.93,1.93,0,0,0,2,1.26,1.91,1.91,0,0,0,2-1.26L31.41,9.36c0-1.17-1.37-2.12-3.08-2.12ZM11.38,16.68a3.3,3.3,0,0,0-2.54,1.81C8,20,8.13,21.63,9.13,22.21l10.72,5A1.93,1.93,0,0,0,22,26.07h0a1.91,1.91,0,0,0-.07-2.39l-9.68-6.79a1.6,1.6,0,0,0-.83-.21Zm33.89,0a1.57,1.57,0,0,0-.82.21l-9.69,6.79a1.93,1.93,0,0,0-.06,2.39h0a1.92,1.92,0,0,0,2.1,1.13l10.72-5c1-.58,1.16-2.24.3-3.72a3.3,3.3,0,0,0-2.54-1.81Zm-25,15.54a1.09,1.09,0,0,0-.4.07l-10.71,5c-1,.59-1.16,2.24-.3,3.73s2.36,2.18,3.37,1.6l9.68-6.78a1.93,1.93,0,0,0,.07-2.4h0a2.19,2.19,0,0,0-1.71-1.2Zm16.15,0a2.2,2.2,0,0,0-1.71,1.2h0a1.93,1.93,0,0,0,.07,2.4l9.68,6.78c1,.58,2.51-.12,3.37-1.6s.71-3.14-.3-3.73l-10.72-5a1.05,1.05,0,0,0-.4-.07ZM28.32,37.1a1.94,1.94,0,0,0-2,1.25l-1,11.78c0,1.17,1.37,2.12,3.08,2.12s3.08-1,3.08-2.12L30.36,38.35a1.92,1.92,0,0,0-2-1.25Z"/></svg>