<?xml version="1.0" encoding="utf-8"?>
<!-- Generator: Adobe Illustrator 24.3.0, SVG Export Plug-In . SVG Version: 6.00 Build 0)  -->
<svg version="1.1" id="Layer_1" xmlns="http://www.w3.org/2000/svg" xmlns:xlink="http://www.w3.org/1999/xlink" x="0px" y="0px"
	 viewBox="0 0 448 512" style="enable-background:new 0 0 448 512;" xml:space="preserve">
<style type="text/css">
	.st0{fill:#F8981D;}
</style>
<path d="M257.2,162.7c-48.7,1.8-169.5,15.5-169.5,117.5c0,109.5,138.3,114,183.5,43.2c6.5,10.2,35.4,37.5,45.3,46.8l56.8-56
	c0,0-32.3-25.3-32.3-52.8V114.3C341,89,316.5,32,228.7,32C140.7,32,94,87,94,136.3l73.5,6.8c16.3-49.5,54.2-49.5,54.2-49.5
	C262.4,93.5,257.2,123.4,257.2,162.7L257.2,162.7z M257.2,249.5c0,80-84.2,68-84.2,17.2c0-47.2,50.5-56.7,84.2-57.8V249.5z"/>
<path class="st0" d="M393.2,413c-7.7,10-70,67-174.5,67S34.2,408.5,9.7,379c-6.8-7.7,1-11.3,5.5-8.3C88.5,415.2,203,488.5,387.7,401
	C395.2,397.3,401,403,393.2,413z"/>
<path class="st0" d="M433,415.2c-6.5,15.8-16,26.8-21.2,31c-5.5,4.5-9.5,2.7-6.5-3.8s19.3-46.5,12.7-55c-6.5-8.3-37-4.3-48-3.2
	c-10.8,1-13,2-14-0.3c-2.3-5.7,21.7-15.5,37.5-17.5c15.7-1.8,41-0.8,46,5.7C443.2,377.2,439.5,399.2,433,415.2L433,415.2z"/>
</svg>
