<svg xmlns="http://www.w3.org/2000/svg" xmlns:xlink="http://www.w3.org/1999/xlink" viewBox="0 0 247.96 233.01"><defs><style>.a{fill:url(#a);}.b{fill:url(#b);}.c{fill:url(#c);}.d{fill:url(#d);}.e{fill:url(#e);}</style><linearGradient id="a" x1="1122.36" y1="646.82" x2="1123.36" y2="646.82" gradientTransform="matrix(-84.71, 45.73, 45.73, 84.71, 65656.23, -106018.5)" gradientUnits="userSpaceOnUse"><stop offset="0" stop-color="#f79210"/><stop offset="0.5" stop-color="#f35c19"/><stop offset="1" stop-color="#f79210"/></linearGradient><linearGradient id="b" x1="1119.07" y1="650.35" x2="1120.07" y2="650.35" gradientTransform="matrix(-124.38, -36.53, -36.53, 124.38, 163113.77, -39878.45)" xlink:href="#a"/><linearGradient id="c" x1="1116.54" y1="650.39" x2="1117.54" y2="650.39" gradientTransform="matrix(-121.93, -121.93, -121.93, 121.93, 215610.75, 57001.78)" xlink:href="#a"/><linearGradient id="d" x1="1115.2" y1="649.59" x2="1116.2" y2="649.59" gradientTransform="matrix(-90.08, -208.83, -208.83, 90.08, 236267.28, 174572.45)" xlink:href="#a"/><linearGradient id="e" x1="1114.4" y1="648.68" x2="1115.4" y2="648.68" gradientTransform="matrix(0, -291.27, -291.27, 0, 189067.09, 324825.07)" xlink:href="#a"/></defs><path class="a" d="M115.46,77.15a4.33,4.33,0,0,0-1.74,5.8h0a4.33,4.33,0,0,0,5.84,1.76h0a4.32,4.32,0,0,0,1.73-5.83h0a4.3,4.3,0,0,0-3.78-2.27h0a4.58,4.58,0,0,0-2.05.54m11.54.19a3.79,3.79,0,0,0-1.54,5.16h0A3.76,3.76,0,0,0,130.6,84h0a3.81,3.81,0,0,0,1.56-5.17h0a3.75,3.75,0,0,0-3.32-2h0a3.62,3.62,0,0,0-1.84.48m-22.49,3.07a4.85,4.85,0,0,0-2,6.58h0a4.88,4.88,0,0,0,6.61,2h0a4.86,4.86,0,0,0,2-6.58h0a4.82,4.82,0,0,0-4.28-2.57h0a4.88,4.88,0,0,0-2.33.58m33.57.53a3.4,3.4,0,0,0-1.38,4.56h0a3.32,3.32,0,0,0,4.51,1.33h0a3.28,3.28,0,0,0,1.37-4.52h0a3.36,3.36,0,0,0-3-1.76h0a3.36,3.36,0,0,0-1.55.39M95.82,87.75a4.29,4.29,0,0,0-1.75,5.85h0a4.29,4.29,0,0,0,5.79,1.73h0a4.28,4.28,0,0,0,1.78-5.82h0a4.35,4.35,0,0,0-3.8-2.27h0a4.07,4.07,0,0,0-2,.51m51.78,0a2.88,2.88,0,0,0-1.2,3.89h0a2.94,2.94,0,0,0,3.91,1.19h0A2.92,2.92,0,0,0,151.47,89h0A2.9,2.9,0,0,0,149,87.44h0a2.87,2.87,0,0,0-1.35.36m7,9.39a2.44,2.44,0,0,0-.93,3.26h0a2.36,2.36,0,0,0,3.2,1h0a2.36,2.36,0,0,0,1-3.21h0a2.42,2.42,0,0,0-2.13-1.27h0a2.33,2.33,0,0,0-1.12.26m-65,.3a3.86,3.86,0,0,0-1.58,5.17h0a3.85,3.85,0,0,0,5.18,1.55h0A3.81,3.81,0,0,0,94.8,99h0a3.85,3.85,0,0,0-3.37-2h0a3.83,3.83,0,0,0-1.79.45m68.57,10a2.84,2.84,0,0,0-1.16,3.89h0a2.87,2.87,0,0,0,3.84,1.19h0a3,3,0,0,0,1.21-3.93h0a2.87,2.87,0,0,0-2.53-1.5h0a3,3,0,0,0-1.36.35M86.6,108.76a3.35,3.35,0,0,0-1.34,4.5h0a3.35,3.35,0,0,0,4.54,1.37h0a3.36,3.36,0,0,0,1.35-4.53h0a3.34,3.34,0,0,0-2.94-1.75h0a3.07,3.07,0,0,0-1.61.41m71.64,9.58a3.4,3.4,0,0,0-1.38,4.55h0a3.42,3.42,0,0,0,4.57,1.32h0a3.33,3.33,0,0,0,1.32-4.52h0a3.28,3.28,0,0,0-2.92-1.75h0a3.26,3.26,0,0,0-1.59.4m-71.15,2.11a2.89,2.89,0,0,0-1.14,3.9h0a2.81,2.81,0,0,0,3.86,1.13h0A2.81,2.81,0,0,0,91,121.61h0a2.92,2.92,0,0,0-2.54-1.5h0a3,3,0,0,0-1.36.34m67.69,8.29a3.86,3.86,0,0,0-1.57,5.2h0a3.82,3.82,0,0,0,5.15,1.54h0a3.85,3.85,0,0,0,1.59-5.19h0a3.81,3.81,0,0,0-3.36-2h0a3.8,3.8,0,0,0-1.81.46m-63.69,2.8a2.39,2.39,0,0,0-1,3.26h0a2.41,2.41,0,0,0,3.24,1h0a2.41,2.41,0,0,0,1-3.26h0a2.43,2.43,0,0,0-2.12-1.25h0a2.41,2.41,0,0,0-1.1.29m57,6.09a4.28,4.28,0,0,0-1.74,5.81h0a4.27,4.27,0,0,0,5.82,1.72h0a4.26,4.26,0,0,0,1.73-5.8h0a4.35,4.35,0,0,0-3.79-2.26h0a4.23,4.23,0,0,0-2,.53m-50.42,2.48A2.85,2.85,0,0,0,96.55,144h0a2.8,2.8,0,0,0,3.86,1.13h0a2.85,2.85,0,0,0,1.17-3.85h0a2.86,2.86,0,0,0-2.52-1.47h0a2.88,2.88,0,0,0-1.35.32M138.84,144a4.83,4.83,0,0,0-2,6.59h0a4.92,4.92,0,0,0,6.61,2h0a4.87,4.87,0,0,0,2-6.57h0a4.9,4.9,0,0,0-4.3-2.59h0a4.52,4.52,0,0,0-2.32.6m-32,2.11a3.3,3.3,0,0,0-1.35,4.53h0A3.32,3.32,0,0,0,110,152h0a3.38,3.38,0,0,0,1.35-4.56h0a3.39,3.39,0,0,0-3-1.74h0a3.08,3.08,0,0,0-1.56.4m21.65,2.14a4.26,4.26,0,0,0-1.69,5.83h0a4.23,4.23,0,0,0,5.79,1.72h0a4.27,4.27,0,0,0,1.74-5.8h0a4.31,4.31,0,0,0-3.79-2.25h0a4.17,4.17,0,0,0-2.05.5m-11.07.66a3.85,3.85,0,0,0-1.54,5.18h0a3.84,3.84,0,0,0,5.19,1.56h0a3.8,3.8,0,0,0,1.55-5.19h0a3.8,3.8,0,0,0-3.38-2h0a3.93,3.93,0,0,0-1.82.43"/><path class="b" d="M117.35,65.43A5.46,5.46,0,0,0,121,72.2h0a5.48,5.48,0,0,0,6.77-3.69h0a5.45,5.45,0,0,0-3.67-6.78h0a5.74,5.74,0,0,0-1.57-.23h0a5.48,5.48,0,0,0-5.22,3.93M132,67.19A6.22,6.22,0,0,0,136.2,75h0A6.22,6.22,0,0,0,144,70.75h0a6.26,6.26,0,0,0-4.23-7.82h0a6,6,0,0,0-1.77-.25h0a6.28,6.28,0,0,0-6,4.51m-29.27,1.27a4.88,4.88,0,0,0,3.31,6h0a4.84,4.84,0,0,0,6-3.29h0a4.9,4.9,0,0,0-3.28-6h0a4.49,4.49,0,0,0-1.35-.19h0a4.87,4.87,0,0,0-4.69,3.46m44.06,5.63a5.45,5.45,0,0,0,3.7,6.76h0a5.47,5.47,0,0,0,6.78-3.71h0a5.46,5.46,0,0,0-3.69-6.78h0a5.51,5.51,0,0,0-1.54-.22h0a5.5,5.5,0,0,0-5.25,4M90.09,76.2A3.81,3.81,0,0,0,92.68,81h0a3.82,3.82,0,0,0,4.73-2.6h0a3.83,3.83,0,0,0-2.59-4.74h0a4,4,0,0,0-1.07-.15h0a3.8,3.8,0,0,0-3.66,2.74m68.5,8.68a4.84,4.84,0,0,0,3.27,6h0a4.88,4.88,0,0,0,6-3.31h0a4.81,4.81,0,0,0-3.29-6h0a4.57,4.57,0,0,0-1.36-.2h0a4.92,4.92,0,0,0-4.65,3.48M80.11,87.66a3.08,3.08,0,0,0,2.1,3.82h0a3.11,3.11,0,0,0,3.84-2.08h0A3.09,3.09,0,0,0,84,85.56h0a3.44,3.44,0,0,0-.83-.11h0a3.08,3.08,0,0,0-3,2.21M167,98.78a3.81,3.81,0,0,0,2.59,4.75h0a3.81,3.81,0,0,0,4.74-2.59h0a3.79,3.79,0,0,0-2.58-4.73h0a3.8,3.8,0,0,0-1.1-.16h0A3.82,3.82,0,0,0,167,98.78m-92.76,3.11a2.32,2.32,0,0,0,1.54,2.9h0a2.32,2.32,0,0,0,2.87-1.59h0a2.31,2.31,0,0,0-1.57-2.86h0a2.54,2.54,0,0,0-.65-.09h0a2.26,2.26,0,0,0-2.19,1.64m96.34,12.35a3,3,0,0,0,2.1,3.82h0a3.09,3.09,0,0,0,3.84-2.1h0a3.08,3.08,0,0,0-2.1-3.82h0a3.27,3.27,0,0,0-.87-.13h0a3.06,3.06,0,0,0-3,2.23M71.47,117a3.09,3.09,0,0,0,2.12,3.82h0a3.09,3.09,0,0,0,3.84-2.08h0a3.1,3.1,0,0,0-2.09-3.84h0a3.26,3.26,0,0,0-.86-.13h0a3.19,3.19,0,0,0-3,2.23m97.86,12.79a2.33,2.33,0,0,0,1.55,2.86h0a2.28,2.28,0,0,0,2.86-1.58h0a2.29,2.29,0,0,0-1.57-2.86h0a2.21,2.21,0,0,0-.62-.09h0a2.35,2.35,0,0,0-2.22,1.67m-95.64,2.26a3.8,3.8,0,0,0,2.57,4.74h0a3.81,3.81,0,0,0,4.73-2.6h0a3.75,3.75,0,0,0-2.58-4.7h0a3.63,3.63,0,0,0-1.12-.17h0a3.72,3.72,0,0,0-3.6,2.73M162,143.61a3.11,3.11,0,0,0,2.07,3.84h0a3.1,3.1,0,0,0,3.87-2.09h0a3.14,3.14,0,0,0-2.1-3.85h0a3.71,3.71,0,0,0-.86-.12h0a3.13,3.13,0,0,0-3,2.22M80.1,145.4a4.86,4.86,0,0,0,3.28,6h0a4.85,4.85,0,0,0,6-3.28h0a4.91,4.91,0,0,0-3.31-6.05h0a4.62,4.62,0,0,0-1.36-.2h0a4.87,4.87,0,0,0-4.64,3.5m70.49,9.26a3.86,3.86,0,0,0,2.61,4.74h0a3.78,3.78,0,0,0,4.71-2.56h0a3.78,3.78,0,0,0-2.56-4.75h0a3.8,3.8,0,0,0-1.1-.16h0a3.86,3.86,0,0,0-3.66,2.73M90.8,155.9a5.44,5.44,0,0,0,3.69,6.75h0a5.5,5.5,0,0,0,6.79-3.69h0a5.49,5.49,0,0,0-3.72-6.77h0A5.51,5.51,0,0,0,96,152h0a5.44,5.44,0,0,0-5.23,3.94M104,162.28a6.27,6.27,0,0,0,4.25,7.8h0a6.29,6.29,0,0,0,7.76-4.25h0a6.26,6.26,0,0,0-4.25-7.8h0a6.34,6.34,0,0,0-1.76-.25h0a6.23,6.23,0,0,0-6,4.5m32-.47a4.88,4.88,0,0,0,3.28,6h0a4.84,4.84,0,0,0,6-3.29h0a4.83,4.83,0,0,0-3.29-6h0a4.39,4.39,0,0,0-1.37-.21h0a4.84,4.84,0,0,0-4.65,3.47m-15.81,2.72a5.45,5.45,0,0,0,3.7,6.73h0a5.39,5.39,0,0,0,6.76-3.66h0a5.45,5.45,0,0,0-3.69-6.77h0a5.6,5.6,0,0,0-1.55-.23h0a5.45,5.45,0,0,0-5.22,3.93"/><path class="c" d="M127.84,46.71a6.21,6.21,0,0,0,.27,8.79h0a6.2,6.2,0,0,0,8.78-.25h0a6.24,6.24,0,0,0-.27-8.8h0a6.19,6.19,0,0,0-4.25-1.67h0a6.27,6.27,0,0,0-4.53,1.93m-19.69,1.53a4.92,4.92,0,0,0,.21,6.94h0a4.94,4.94,0,0,0,6.93-.23h0a4.92,4.92,0,0,0-.22-6.92h0a4.86,4.86,0,0,0-3.34-1.33h0a5,5,0,0,0-3.58,1.54m39,3.72a7,7,0,0,0,.27,9.88h0a7,7,0,0,0,9.89-.28h0a7,7,0,0,0-.29-9.88h0a7,7,0,0,0-4.81-1.92h0a6.89,6.89,0,0,0-5.06,2.2M89.36,55.84a4,4,0,0,0,.16,5.6h0a4,4,0,0,0,5.62-.18h0A3.94,3.94,0,0,0,95,55.68h0a4,4,0,0,0-2.72-1.08h0a4,4,0,0,0-2.89,1.24m74.09,7.06a8,8,0,0,0,.31,11.35h0a8,8,0,0,0,11.37-.3h0a8.08,8.08,0,0,0-.33-11.4h0a8,8,0,0,0-5.5-2.19h0a8,8,0,0,0-5.85,2.54M73.76,69.19a2.94,2.94,0,0,0,.12,4.17h0a2.92,2.92,0,0,0,4.17-.11h0a3,3,0,0,0-.11-4.19h0a3.11,3.11,0,0,0-2-.78h0a2.84,2.84,0,0,0-2.13.91M176.85,80a7,7,0,0,0,.3,9.89h0a7,7,0,0,0,9.87-.3h0a7,7,0,0,0-.29-9.9h0A6.94,6.94,0,0,0,182,77.76h0a7,7,0,0,0-5.11,2.2M61.37,85.55a4,4,0,0,0,.18,5.6h0a4,4,0,0,0,5.6-.15h0A4,4,0,0,0,67,85.41h0a3.92,3.92,0,0,0-2.71-1.08h0a4,4,0,0,0-2.89,1.22m123,14.4a6.2,6.2,0,0,0,.28,8.79h0a6.19,6.19,0,0,0,8.78-.26h0a6.19,6.19,0,0,0-.26-8.78h0a6.18,6.18,0,0,0-4.27-1.7h0a6.18,6.18,0,0,0-4.53,2M54.91,104.78a4.89,4.89,0,0,0,.21,6.9h0a4.92,4.92,0,0,0,6.93-.2h0a4.94,4.94,0,0,0-.2-6.93h0a4.93,4.93,0,0,0-3.38-1.34h0a4.93,4.93,0,0,0-3.56,1.57m131,16.73a4.91,4.91,0,0,0,.22,6.92h0a4.88,4.88,0,0,0,6.93-.22h0a4.86,4.86,0,0,0-.22-6.91h0a4.8,4.8,0,0,0-3.35-1.32h0a5,5,0,0,0-3.58,1.53m-131.38,3a6.24,6.24,0,0,0,.28,8.79h0a6.19,6.19,0,0,0,8.79-.25h0a6.25,6.25,0,0,0-.27-8.81h0a6.17,6.17,0,0,0-4.25-1.69h0a6.27,6.27,0,0,0-4.55,2M180.85,142a4,4,0,0,0,.16,5.62h0a4,4,0,0,0,5.63-.2h0a4,4,0,0,0-.17-5.6h0a4.06,4.06,0,0,0-2.72-1.07h0a4,4,0,0,0-2.9,1.25M61,143.45a7,7,0,0,0,.26,9.89h0a7,7,0,0,0,9.89-.3h0a7,7,0,0,0-.29-9.88h0a6.94,6.94,0,0,0-4.76-1.91h0a7,7,0,0,0-5.1,2.2m11.88,15.61a8.06,8.06,0,0,0,.35,11.38h0a8,8,0,0,0,11.35-.34h0a8,8,0,0,0-.33-11.37h0a8,8,0,0,0-5.52-2.19h0a8,8,0,0,0-5.85,2.52m97.07.72a3,3,0,0,0,.12,4.17h0a3,3,0,0,0,4.18-.15h0a2.91,2.91,0,0,0-.13-4.15h0a2.9,2.9,0,0,0-2-.81h0a2.86,2.86,0,0,0-2.13.94M90.69,171.46a7,7,0,0,0,.31,9.88h0a7,7,0,0,0,9.88-.3h0a7,7,0,0,0-.29-9.89h0a7,7,0,0,0-4.79-1.9h0a7,7,0,0,0-5.11,2.21m62.17.27a4,4,0,0,0,.15,5.6h0a4,4,0,0,0,5.61-.18h0a3.94,3.94,0,0,0-.16-5.59h0a4,4,0,0,0-2.72-1.08h0a4,4,0,0,0-2.88,1.25m-41.77,6a6.19,6.19,0,0,0,.27,8.77h0a6.18,6.18,0,0,0,8.78-.24h0a6.2,6.2,0,0,0-.24-8.78h0a6.16,6.16,0,0,0-4.26-1.7h0a6.27,6.27,0,0,0-4.55,2m21.62.31a4.91,4.91,0,0,0,.21,6.91h0a4.92,4.92,0,0,0,6.93-.21h0a4.89,4.89,0,0,0-.2-6.91h0a4.9,4.9,0,0,0-3.35-1.33h0a5,5,0,0,0-3.59,1.54"/><path class="d" d="M133.05,24.74a5.36,5.36,0,0,0-4.23,6.32h0a5.4,5.4,0,0,0,6.33,4.22h0A5.38,5.38,0,0,0,139.36,29h0a5.36,5.36,0,0,0-5.26-4.32h0a8.16,8.16,0,0,0-1,.11m-22.29,1.47A4.23,4.23,0,0,0,107.21,31h0A4.21,4.21,0,0,0,112,34.51h0a4.21,4.21,0,0,0,3.55-4.76h0a4.2,4.2,0,0,0-4.17-3.59h0a4.55,4.55,0,0,0-.61.05m43.76,3.08a6.52,6.52,0,0,0-4.7,7.92h0a6.53,6.53,0,0,0,7.93,4.7h0a6.51,6.51,0,0,0,4.7-7.91h0a6.5,6.5,0,0,0-6.31-4.9h0a6.17,6.17,0,0,0-1.62.19M88,33a3.89,3.89,0,0,0-2,5.13h0a3.92,3.92,0,0,0,5.14,2h0a3.91,3.91,0,0,0,2-5.12h0a3.89,3.89,0,0,0-3.59-2.37h0A3.81,3.81,0,0,0,88,33m85.6,6a8.12,8.12,0,0,0-5.34,10.17h0a8.13,8.13,0,0,0,10.18,5.33h0a8.12,8.12,0,0,0,5.32-10.18h0a8.1,8.1,0,0,0-7.72-5.7h0a8.38,8.38,0,0,0-2.44.38m-106.17,6a4.2,4.2,0,0,0-.69,5.9h0a4.19,4.19,0,0,0,5.9.69h0a4.19,4.19,0,0,0,.7-5.9h0A4.18,4.18,0,0,0,70,44h0a4.27,4.27,0,0,0-2.62.9M189.2,54.09a8.94,8.94,0,0,0-5.3,11.51h0a9,9,0,0,0,11.5,5.3h0a9,9,0,0,0,5.3-11.51h0a9,9,0,0,0-8.39-5.85h0a8.69,8.69,0,0,0-3.11.55M51,60.11a5.37,5.37,0,0,0-1.29,7.5h0a5.38,5.38,0,0,0,7.49,1.28h0a5.39,5.39,0,0,0,1.29-7.49h0a5.38,5.38,0,0,0-4.39-2.27h0a5.37,5.37,0,0,0-3.1,1m149.05,13a9.72,9.72,0,0,0-5.1,12.8h0a9.76,9.76,0,0,0,12.8,5.1h0a9.76,9.76,0,0,0,5.08-12.82h0a9.72,9.72,0,0,0-8.93-5.88h0a9.7,9.7,0,0,0-3.85.8M39.59,78.84a6.52,6.52,0,0,0-2,9h0a6.52,6.52,0,0,0,9,2h0a6.52,6.52,0,0,0,2-9h0a6.45,6.45,0,0,0-5.5-3h0a6.55,6.55,0,0,0-3.48,1m166.59,17a8.94,8.94,0,0,0-4.05,12h0a8.92,8.92,0,0,0,12,4.05h0a8.94,8.94,0,0,0,4-12h0a9,9,0,0,0-8-5h0a9,9,0,0,0-3.94.92M33.54,99.33a8.1,8.1,0,0,0-3.1,11h0a8.12,8.12,0,0,0,11.05,3.1h0a8.13,8.13,0,0,0,3.1-11.07h0a8.1,8.1,0,0,0-7.08-4.13h0a7.9,7.9,0,0,0-4,1m172.93,20.21a8.12,8.12,0,0,0-3.09,11.06h0a8.09,8.09,0,0,0,11.05,3.09h0a8.1,8.1,0,0,0,3.1-11h0a8.12,8.12,0,0,0-7.08-4.15h0a8.26,8.26,0,0,0-4,1.05M33.85,121.1a8.94,8.94,0,0,0-4.05,12h0a9,9,0,0,0,12,4h0a8.94,8.94,0,0,0,4-12h0a8.9,8.9,0,0,0-8-5h0a8.9,8.9,0,0,0-4,.94M40.2,142a9.73,9.73,0,0,0-5.1,12.81h0a9.75,9.75,0,0,0,12.81,5.09h0A9.75,9.75,0,0,0,53,147.13h0a9.73,9.73,0,0,0-8.94-5.88h0a9.35,9.35,0,0,0-3.85.79m161.23,1.11a6.53,6.53,0,0,0-2,9h0a6.51,6.51,0,0,0,9,2h0a6.5,6.5,0,0,0,2-9h0a6.49,6.49,0,0,0-5.51-3h0a6.26,6.26,0,0,0-3.46,1m-148.87,19a9,9,0,0,0-5.28,11.5h0a8.91,8.91,0,0,0,11.5,5.29h0a9,9,0,0,0,5.3-11.51h0a9,9,0,0,0-8.4-5.84h0a9.22,9.22,0,0,0-3.12.56m138.17,2a5.37,5.37,0,0,0-1.29,7.5h0a5.39,5.39,0,0,0,7.51,1.28h0a5.38,5.38,0,0,0,1.26-7.51h0a5.37,5.37,0,0,0-4.4-2.26h0a5.2,5.2,0,0,0-3.08,1M69.57,178.59a8.08,8.08,0,0,0-5.31,10.16h0a8.07,8.07,0,0,0,10.15,5.33h0a8.1,8.1,0,0,0,5.35-10.16h0A8.15,8.15,0,0,0,72,178.21h0a8.16,8.16,0,0,0-2.43.38m105.8,2.91a4.21,4.21,0,0,0-.68,5.9h0a4.2,4.2,0,0,0,5.9.69h0a4.2,4.2,0,0,0,.68-5.91h0a4.15,4.15,0,0,0-3.28-1.59h0a4.3,4.3,0,0,0-2.62.91m-85.15,9.61A6.51,6.51,0,0,0,85.54,199h0a6.49,6.49,0,0,0,7.91,4.7h0a6.51,6.51,0,0,0,4.71-7.92h0a6.51,6.51,0,0,0-6.31-4.9h0a6.11,6.11,0,0,0-1.63.2m66.69,1.75a3.89,3.89,0,0,0-2,5.13h0a3.9,3.9,0,0,0,5.13,2h0a3.9,3.9,0,0,0,2.05-5.15h0a3.91,3.91,0,0,0-3.6-2.37h0a4.43,4.43,0,0,0-1.55.34m-44.1,4.87a5.37,5.37,0,0,0-4.21,6.32h0a5.38,5.38,0,0,0,6.34,4.22h0a5.39,5.39,0,0,0,4.21-6.35h0a5.38,5.38,0,0,0-5.27-4.31h0a4.94,4.94,0,0,0-1.07.12m23.18.76a4.2,4.2,0,0,0-3.54,4.77h0a4.19,4.19,0,0,0,4.76,3.54h0a4.18,4.18,0,0,0,3.55-4.76h0a4.21,4.21,0,0,0-4.17-3.6h0a3.1,3.1,0,0,0-.6.05"/><path class="e" d="M119,5a5,5,0,0,0,5,5h0a5,5,0,0,0,5-5h0a5,5,0,0,0-5-5h0a5,5,0,0,0-5,5m28.68,2.4a5.37,5.37,0,0,0,3.8,6.59h0a5.38,5.38,0,0,0,6.6-3.8h0a5.39,5.39,0,0,0-3.82-6.59h0a5.68,5.68,0,0,0-1.4-.19h0a5.41,5.41,0,0,0-5.18,4M93.74,3.61a5.37,5.37,0,0,0-3.81,6.58h0A5.37,5.37,0,0,0,96.51,14h0a5.39,5.39,0,0,0,3.83-6.6h0a5.38,5.38,0,0,0-5.19-4h0a6.31,6.31,0,0,0-1.41.2M173,18.48a6.89,6.89,0,0,0,5.3,8.17h0a6.91,6.91,0,0,0,8.18-5.29h0a6.86,6.86,0,0,0-5.3-8.16h0a7.33,7.33,0,0,0-1.47-.15h0A6.84,6.84,0,0,0,173,18.48M66.79,13.19a6.9,6.9,0,0,0-5.32,8.17h0a6.87,6.87,0,0,0,8.17,5.29h0A6.89,6.89,0,0,0,75,18.48h0A6.86,6.86,0,0,0,68.24,13h0a6.55,6.55,0,0,0-1.45.15M194.6,36.35a8.35,8.35,0,0,0,6.94,9.56h0A8.34,8.34,0,0,0,211.07,39h0a8.35,8.35,0,0,0-6.92-9.55h0a10,10,0,0,0-1.32-.1h0a8.33,8.33,0,0,0-8.23,7M43.84,29.41A8.34,8.34,0,0,0,36.91,39h0a8.36,8.36,0,0,0,9.54,6.95h0a8.35,8.35,0,0,0,6.95-9.56h0a8.33,8.33,0,0,0-8.22-7h0a10.09,10.09,0,0,0-1.34.11M210.2,59.66a10.42,10.42,0,0,0,9.26,11.44h0a10.39,10.39,0,0,0,11.43-9.26h0a10.39,10.39,0,0,0-9.25-11.44h0a10.35,10.35,0,0,0-1.1,0h0a10.4,10.4,0,0,0-10.34,9.31M26.34,50.4a10.36,10.36,0,0,0-9.25,11.44h0A10.39,10.39,0,0,0,28.51,71.1h0a10.4,10.4,0,0,0,9.26-11.44h0a10.38,10.38,0,0,0-10.32-9.31h0a8.1,8.1,0,0,0-1.11,0M220.28,87a11.48,11.48,0,0,0,10.83,12.06h0a11.49,11.49,0,0,0,12.08-10.86h0a11.46,11.46,0,0,0-10.85-12h0c-.21,0-.43,0-.63,0h0A11.44,11.44,0,0,0,220.28,87M15.64,76.19a11.46,11.46,0,0,0-10.85,12h0A11.5,11.5,0,0,0,16.86,99.1h0A11.48,11.48,0,0,0,27.71,87h0A11.43,11.43,0,0,0,16.26,76.18h0a4.28,4.28,0,0,0-.62,0M223,116.49A12.48,12.48,0,0,0,235.47,129h0A12.49,12.49,0,0,0,248,116.5h0A12.44,12.44,0,0,0,235.5,104h0A12.44,12.44,0,0,0,223,116.49m-223,0A12.51,12.51,0,0,0,12.5,129h0A12.47,12.47,0,0,0,25,116.49h0A12.41,12.41,0,0,0,12.5,104h0A12.44,12.44,0,0,0,0,116.5m231.1,17.41A11.48,11.48,0,0,0,220.26,146h0a11.44,11.44,0,0,0,12.07,10.85h0a11.45,11.45,0,0,0,10.85-12.05h0a11.49,11.49,0,0,0-11.47-10.86h-.61M4.8,144.76a11.45,11.45,0,0,0,10.85,12.05h0A11.44,11.44,0,0,0,27.72,146h0a11.46,11.46,0,0,0-10.84-12.05h-.6A11.48,11.48,0,0,0,4.8,144.76m214.66,17.15a10.42,10.42,0,0,0-9.26,11.44h0a10.39,10.39,0,0,0,11.44,9.25h0a10.37,10.37,0,0,0,9.25-11.42h0a10.39,10.39,0,0,0-10.33-9.32h0a6.75,6.75,0,0,0-1.1,0M17.09,171.16a10.38,10.38,0,0,0,9.25,11.43h0a10.36,10.36,0,0,0,11.42-9.25h0A10.41,10.41,0,0,0,28.5,161.9h0a8.2,8.2,0,0,0-1.1-.06h0a10.41,10.41,0,0,0-10.31,9.32m184.45,16a8.34,8.34,0,0,0-6.94,9.55h0a8.34,8.34,0,0,0,9.55,6.94h0a8.31,8.31,0,0,0,6.92-9.55h0a8.35,8.35,0,0,0-8.23-7h0a7.19,7.19,0,0,0-1.3.1M36.91,194a8.33,8.33,0,0,0,6.93,9.55h0a8.34,8.34,0,0,0,9.56-6.94h0a8.34,8.34,0,0,0-6.95-9.54h0a8.44,8.44,0,0,0-1.31-.1h0a8.34,8.34,0,0,0-8.23,7m141.4,12.31a6.88,6.88,0,0,0-5.3,8.18h0a6.89,6.89,0,0,0,8.18,5.31h0a6.89,6.89,0,0,0,5.3-8.19h0a6.9,6.9,0,0,0-6.74-5.45h0a7.27,7.27,0,0,0-1.44.15m-116.82,5.3a6.9,6.9,0,0,0,5.3,8.19h0A6.89,6.89,0,0,0,75,214.53h0a6.9,6.9,0,0,0-5.3-8.18h0a6.92,6.92,0,0,0-1.42-.15h0a6.9,6.9,0,0,0-6.74,5.45m90,7.36a5.42,5.42,0,0,0-3.81,6.6h0a5.36,5.36,0,0,0,6.59,3.79h0a5.38,5.38,0,0,0,3.82-6.59h0a5.39,5.39,0,0,0-5.21-4h0a5.2,5.2,0,0,0-1.39.18m-61.52,3.8a5.37,5.37,0,0,0,3.81,6.58h0a5.39,5.39,0,0,0,6.6-3.8h0A5.39,5.39,0,0,0,96.51,219h0a5.46,5.46,0,0,0-1.38-.19h0a5.43,5.43,0,0,0-5.2,4m29,5.2a5,5,0,0,0,5,5h0a5,5,0,0,0,5-5h0a5,5,0,0,0-5-5h0a5,5,0,0,0-5,5"/></svg>