<?xml version="1.0" encoding="UTF-8" standalone="no"?>
<!-- Created with Inkscape (http://www.inkscape.org/) -->

<svg
   xmlns:dc="http://purl.org/dc/elements/1.1/"
   xmlns:cc="http://creativecommons.org/ns#"
   xmlns:rdf="http://www.w3.org/1999/02/22-rdf-syntax-ns#"
   xmlns:svg="http://www.w3.org/2000/svg"
   xmlns="http://www.w3.org/2000/svg"
   version="1.1"
   width="469.04022"
   height="74.199997"
   id="svg2"
   xml:space="preserve"><metadata
     id="metadata8"><rdf:RDF><cc:Work
         rdf:about=""><dc:format>image/svg+xml</dc:format><dc:type
           rdf:resource="http://purl.org/dc/dcmitype/StillImage" /><dc:title></dc:title></cc:Work></rdf:RDF></metadata><defs
     id="defs6"><linearGradient
       x1="0"
       y1="0"
       x2="1"
       y2="0"
       id="linearGradient24"
       gradientUnits="userSpaceOnUse"
       gradientTransform="matrix(0,236.5,236.5,0,18,537.14038)"
       spreadMethod="pad"><stop
         id="stop26"
         style="stop-color:#ffffff;stop-opacity:1"
         offset="0" /><stop
         id="stop28"
         style="stop-color:#8dd248;stop-opacity:1"
         offset="1" /></linearGradient><clipPath
       id="clipPath36"><path
         d="M 253.585,792 231.495,777.655 310.969,655.276 412.807,498.458 612,627.815 612,792 253.585,792 z"
         id="path38" /></clipPath><linearGradient
       x1="0"
       y1="0"
       x2="1"
       y2="0"
       id="linearGradient56"
       gradientUnits="userSpaceOnUse"
       gradientTransform="matrix(0,236.5,236.5,0,18,537.14038)"
       spreadMethod="pad"><stop
         id="stop58"
         style="stop-color:#ffffff;stop-opacity:1"
         offset="0" /><stop
         id="stop60"
         style="stop-color:#bbe388;stop-opacity:1"
         offset="1" /></linearGradient><clipPath
       id="clipPath68"><path
         d="M 253.585,792 231.495,777.655 310.969,655.276 412.807,498.458 612,627.815 612,792 253.585,792 z"
         id="path70" /></clipPath><linearGradient
       x1="0"
       y1="0"
       x2="1"
       y2="0"
       id="linearGradient88"
       gradientUnits="userSpaceOnUse"
       gradientTransform="matrix(0,236.5,236.5,0,18,537.14038)"
       spreadMethod="pad"><stop
         id="stop90"
         style="stop-color:#ffffff;stop-opacity:1"
         offset="0" /><stop
         id="stop92"
         style="stop-color:#bbe388;stop-opacity:1"
         offset="1" /></linearGradient><clipPath
       id="clipPath100"><path
         d="M 253.585,792 231.495,777.655 310.969,655.276 412.807,498.458 612,627.815 612,792 253.585,792 z"
         id="path102" /></clipPath><linearGradient
       x1="0"
       y1="0"
       x2="1"
       y2="0"
       id="linearGradient120"
       gradientUnits="userSpaceOnUse"
       gradientTransform="matrix(0,236.5,236.5,0,18,537.14038)"
       spreadMethod="pad"><stop
         id="stop122"
         style="stop-color:#ffffff;stop-opacity:1"
         offset="0" /><stop
         id="stop124"
         style="stop-color:#bbe388;stop-opacity:1"
         offset="1" /></linearGradient><clipPath
       id="clipPath132"><path
         d="M 253.585,792 231.495,777.655 310.969,655.276 412.807,498.458 612,627.815 612,792 253.585,792 z"
         id="path134" /></clipPath><linearGradient
       x1="0"
       y1="0"
       x2="1"
       y2="0"
       id="linearGradient152"
       gradientUnits="userSpaceOnUse"
       gradientTransform="matrix(0,236.5,236.5,0,18,537.14038)"
       spreadMethod="pad"><stop
         id="stop154"
         style="stop-color:#ffffff;stop-opacity:1"
         offset="0" /><stop
         id="stop156"
         style="stop-color:#bbe388;stop-opacity:1"
         offset="1" /></linearGradient><clipPath
       id="clipPath164"><path
         d="M 253.585,792 231.495,777.655 310.969,655.276 412.807,498.458 612,627.815 612,792 253.585,792 z"
         id="path166" /></clipPath><linearGradient
       x1="0"
       y1="0"
       x2="1"
       y2="0"
       id="linearGradient184"
       gradientUnits="userSpaceOnUse"
       gradientTransform="matrix(0,236.5,236.5,0,18,537.14038)"
       spreadMethod="pad"><stop
         id="stop186"
         style="stop-color:#ffffff;stop-opacity:1"
         offset="0" /><stop
         id="stop188"
         style="stop-color:#bbe388;stop-opacity:1"
         offset="1" /></linearGradient><clipPath
       id="clipPath196"><path
         d="M 253.585,792 231.495,777.655 310.969,655.276 412.807,498.458 612,627.815 612,792 253.585,792 z"
         id="path198" /></clipPath><linearGradient
       x1="0"
       y1="0"
       x2="1"
       y2="0"
       id="linearGradient216"
       gradientUnits="userSpaceOnUse"
       gradientTransform="matrix(0,236.5,236.5,0,18,537.14038)"
       spreadMethod="pad"><stop
         id="stop218"
         style="stop-color:#ffffff;stop-opacity:1"
         offset="0" /><stop
         id="stop220"
         style="stop-color:#bbe388;stop-opacity:1"
         offset="1" /></linearGradient><clipPath
       id="clipPath228"><path
         d="M 253.585,792 231.495,777.655 310.969,655.276 412.807,498.458 612,627.815 612,792 253.585,792 z"
         id="path230" /></clipPath><linearGradient
       x1="0"
       y1="0"
       x2="1"
       y2="0"
       id="linearGradient248"
       gradientUnits="userSpaceOnUse"
       gradientTransform="matrix(0,236.5,236.5,0,18,537.14038)"
       spreadMethod="pad"><stop
         id="stop250"
         style="stop-color:#ffffff;stop-opacity:1"
         offset="0" /><stop
         id="stop252"
         style="stop-color:#bbe388;stop-opacity:1"
         offset="1" /></linearGradient><clipPath
       id="clipPath260"><path
         d="M 253.585,792 231.495,777.655 310.969,655.276 412.807,498.458 612,627.815 612,792 253.585,792 z"
         id="path262" /></clipPath><linearGradient
       x1="0"
       y1="0"
       x2="1"
       y2="0"
       id="linearGradient280"
       gradientUnits="userSpaceOnUse"
       gradientTransform="matrix(0,236.5,236.5,0,18,537.14038)"
       spreadMethod="pad"><stop
         id="stop282"
         style="stop-color:#ffffff;stop-opacity:1"
         offset="0" /><stop
         id="stop284"
         style="stop-color:#bbe388;stop-opacity:1"
         offset="1" /></linearGradient><clipPath
       id="clipPath292"><path
         d="M 253.585,792 231.495,777.655 310.969,655.276 412.807,498.458 612,627.815 612,792 253.585,792 z"
         id="path294" /></clipPath><linearGradient
       x1="0"
       y1="0"
       x2="1"
       y2="0"
       id="linearGradient312"
       gradientUnits="userSpaceOnUse"
       gradientTransform="matrix(0,236.5,236.5,0,18,537.14038)"
       spreadMethod="pad"><stop
         id="stop314"
         style="stop-color:#ffffff;stop-opacity:1"
         offset="0" /><stop
         id="stop316"
         style="stop-color:#bbe388;stop-opacity:1"
         offset="1" /></linearGradient><clipPath
       id="clipPath324"><path
         d="M 253.585,792 231.495,777.655 310.969,655.276 412.807,498.458 612,627.815 612,792 253.585,792 z"
         id="path326" /></clipPath><linearGradient
       x1="0"
       y1="0"
       x2="1"
       y2="0"
       id="linearGradient344"
       gradientUnits="userSpaceOnUse"
       gradientTransform="matrix(0,236.5,236.5,0,18,537.14038)"
       spreadMethod="pad"><stop
         id="stop346"
         style="stop-color:#ffffff;stop-opacity:1"
         offset="0" /><stop
         id="stop348"
         style="stop-color:#bbe388;stop-opacity:1"
         offset="1" /></linearGradient><clipPath
       id="clipPath356"><path
         d="m 52.875,707.055 174.289,0 0,42.022 -174.289,0 0,-42.022 z"
         id="path358" /></clipPath><clipPath
       id="clipPath388"><path
         d="m 52.875,711.315 164.596,0 0,37.762 -164.596,0 0,-37.762 z"
         id="path390" /></clipPath><clipPath
       id="clipPath408"><path
         d="m 52.875,707.055 174.289,0 0,42.022 -174.289,0 0,-42.022 z"
         id="path410" /></clipPath><linearGradient
       x1="0"
       y1="0"
       x2="1"
       y2="0"
       id="linearGradient524"
       gradientUnits="userSpaceOnUse"
       gradientTransform="matrix(0,236.5,236.5,0,18,537.14038)"
       spreadMethod="pad"><stop
         id="stop526"
         style="stop-color:#ffffff;stop-opacity:1"
         offset="0" /><stop
         id="stop528"
         style="stop-color:#ddf1c0;stop-opacity:1"
         offset="1" /></linearGradient><linearGradient
       x1="0"
       y1="0"
       x2="1"
       y2="0"
       id="linearGradient544"
       gradientUnits="userSpaceOnUse"
       gradientTransform="matrix(0,236.5,236.5,0,18,537.14038)"
       spreadMethod="pad"><stop
         id="stop546"
         style="stop-color:#ffffff;stop-opacity:1"
         offset="0" /><stop
         id="stop548"
         style="stop-color:#eaf6d9;stop-opacity:1"
         offset="1" /></linearGradient><linearGradient
       x1="0"
       y1="0"
       x2="1"
       y2="0"
       id="linearGradient564"
       gradientUnits="userSpaceOnUse"
       gradientTransform="matrix(0,236.5,236.5,0,18,537.14038)"
       spreadMethod="pad"><stop
         id="stop566"
         style="stop-color:#ffffff;stop-opacity:1"
         offset="0" /><stop
         id="stop568"
         style="stop-color:#eaf6d9;stop-opacity:1"
         offset="1" /></linearGradient><linearGradient
       x1="0"
       y1="0"
       x2="1"
       y2="0"
       id="linearGradient584"
       gradientUnits="userSpaceOnUse"
       gradientTransform="matrix(0,236.5,236.5,0,18,537.14038)"
       spreadMethod="pad"><stop
         id="stop586"
         style="stop-color:#ffffff;stop-opacity:1"
         offset="0" /><stop
         id="stop588"
         style="stop-color:#eaf6d9;stop-opacity:1"
         offset="1" /></linearGradient><linearGradient
       x1="0"
       y1="0"
       x2="1"
       y2="0"
       id="linearGradient604"
       gradientUnits="userSpaceOnUse"
       gradientTransform="matrix(0,236.5,236.5,0,18,537.14038)"
       spreadMethod="pad"><stop
         id="stop606"
         style="stop-color:#ffffff;stop-opacity:1"
         offset="0" /><stop
         id="stop608"
         style="stop-color:#afdf77;stop-opacity:1"
         offset="1" /></linearGradient><linearGradient
       x1="0"
       y1="0"
       x2="1"
       y2="0"
       id="linearGradient624"
       gradientUnits="userSpaceOnUse"
       gradientTransform="matrix(0,236.5,236.5,0,18,537.14038)"
       spreadMethod="pad"><stop
         id="stop626"
         style="stop-color:#ffffff;stop-opacity:1"
         offset="0" /><stop
         id="stop628"
         style="stop-color:#d0eca9;stop-opacity:1"
         offset="1" /></linearGradient><linearGradient
       x1="0"
       y1="0"
       x2="1"
       y2="0"
       id="linearGradient644"
       gradientUnits="userSpaceOnUse"
       gradientTransform="matrix(0,236.5,236.5,0,18,537.14038)"
       spreadMethod="pad"><stop
         id="stop646"
         style="stop-color:#ffffff;stop-opacity:1"
         offset="0" /><stop
         id="stop648"
         style="stop-color:#d0eca9;stop-opacity:1"
         offset="1" /></linearGradient><linearGradient
       x1="0"
       y1="0"
       x2="1"
       y2="0"
       id="linearGradient664"
       gradientUnits="userSpaceOnUse"
       gradientTransform="matrix(0,236.5,236.5,0,18,537.14038)"
       spreadMethod="pad"><stop
         id="stop666"
         style="stop-color:#ffffff;stop-opacity:1"
         offset="0" /><stop
         id="stop668"
         style="stop-color:#e7f5d2;stop-opacity:1"
         offset="1" /></linearGradient><linearGradient
       x1="0"
       y1="0"
       x2="1"
       y2="0"
       id="linearGradient684"
       gradientUnits="userSpaceOnUse"
       gradientTransform="matrix(0,236.5,236.5,0,18,537.14038)"
       spreadMethod="pad"><stop
         id="stop686"
         style="stop-color:#ffffff;stop-opacity:1"
         offset="0" /><stop
         id="stop688"
         style="stop-color:#f0f9e4;stop-opacity:1"
         offset="1" /></linearGradient><clipPath
       id="clipPath708"><path
         d="M 0,0 612,0 612,792 0,792 0,0 z"
         id="path710" /></clipPath><clipPath
       id="clipPath728"><path
         d="m 54,522.667 c 0,0 -36,0 -36,-36 l 0,0 L 18,54 c 0,0 0,-36 36,-36 l 0,0 504,0 c 0,0 36,0 36,36 l 0,0 0,432.667 c 0,0 0,36 -36,36 l 0,0 -504,0 z"
         id="path730" /></clipPath></defs><g
     transform="matrix(1.25,0,0,-1.25,-228.89857,946.53091)"
     id="g10"><path
       d="m 183.11886,753.14418 25.91009,0 0,-17.59807 0.1687,0 19.75746,17.59807 29.04707,0 -23.83163,-21.58296 27.5729,-29.61597 -32.78834,0 -19.75746,20.95734 -0.1687,0 0,-20.95734 -25.91009,0 0,51.19893 z"
       id="path364"
       style="fill:#800033;fill-opacity:1;fill-rule:nonzero;stroke:none" /><path
       d="m 299.17838,710.82603 c 11.52414,0 10.76303,12.85583 10.76303,17.10121 0,4.24538 0.12788,16.02534 -10.76303,16.02534 -10.89543,0 -10.76523,-11.77996 -10.76523,-16.02534 0,-4.24538 -0.76779,-17.10121 10.76523,-17.10121 m 0,43.74187 c 29.41911,0 37.42167,-6.16891 37.42167,-27.17746 0,-21.01078 -8.00256,-27.17822 -37.42167,-27.17822 -29.42283,0 -37.42314,6.16744 -37.42314,27.17822 0,21.00855 8.00031,27.17746 37.42314,27.17746"
       id="path370"
       style="fill:#800033;fill-opacity:1;fill-rule:nonzero;stroke:none" /><path
       d="m 392.47659,721.17198 0,-19.57056 26.6002,0 0,51.1944 -26.6002,0 0,-17.59582 -19.08438,0 0,17.59582 -26.60536,0 0,-51.1944 26.60536,0 0,19.57056 19.08438,0 z"
       id="path376"
       style="fill:#800033;fill-opacity:1;fill-rule:nonzero;stroke:none" /><path
       d="m 431.65423,752.79606 27.21784,0 0,-39.00942 c 0,0 21.72428,-0.0625 24.61048,-0.0625 2.89065,0 4.59633,2.5906 4.59633,2.5906 l 0,-14.71313 -56.42465,0 0,51.19443 z"
       id="path382"
       style="fill:#800033;fill-opacity:1;fill-rule:nonzero;stroke:none" /><path
       d="m 551.54084,735.84754 c -5.63116,4.50661 -10.45679,6.02138 -15.64635,6.1057 -5.07198,0.088 -9.70456,-1.67587 -9.70456,-4.7626 0,-2.437 3.46317,-3.44659 15.57832,-5.97092 9.95307,-2.08315 16.58278,-7.16645 16.58278,-16.63066 0,-10.68308 -17.77291,-16.72326 -33.6693,-16.72326 -11.16021,0 -19.72713,2.00939 -27.39386,5.4492 l 0,14.33818 c 4.73836,-4.94325 15.34086,-7.56847 23.46324,-7.56847 4.5061,0 6.71697,0.66176 6.71697,4.24612 0,2.21866 -2.80928,4.24163 -11.31554,5.79926 -16.11605,2.95273 -21.56229,7.56625 -21.56229,15.45395 0,11.32829 14.08639,18.07089 31.44437,18.07089 9.35688,0 17.9497,-0.28912 25.50622,-3.80269 l 0,-14.0047 z"
       id="path396"
       style="fill:#800033;fill-opacity:1;fill-rule:nonzero;stroke:none" /><path
       d="m 472.92813,731.91122 1.86398,3.28848 c -5.60969,2.77429 -7.26435,9.83235 -4.41512,13.85713 3.06373,4.33121 11.57149,6.187 16.16559,-0.51721 3.91216,-5.72023 0.1687,-10.56563 -1.53038,-11.95389 -1.6983,-1.38603 -12.08407,-4.67451 -12.08407,-4.67451"
       id="path402"
       style="fill:#800033;fill-opacity:1;fill-rule:nonzero;stroke:none" /></g></svg>