<?xml version="1.0" encoding="utf-8"?>
<!-- Generator: Adobe Illustrator 16.0.0, SVG Export Plug-In . SVG Version: 6.00 Build 0)  -->
<!DOCTYPE svg PUBLIC "-//W3C//DTD SVG 1.1//EN" "http://www.w3.org/Graphics/SVG/1.1/DTD/svg11.dtd">
<svg version="1.1" id="Layer_1" xmlns="http://www.w3.org/2000/svg" xmlns:xlink="http://www.w3.org/1999/xlink" x="0px" y="0px"
	 width="1000px" height="149.232px" viewBox="-194 321.384 1000 149.232" enable-background="new -194 321.384 1000 149.232"
	 xml:space="preserve">
<g>
	<path d="M62.204,409.557c-1.992,12.601-6.973,25.813-13.322,35.343c-5.606,8.414-15.216,18.444-29.159,18.444
		c-11.548,0-19.144-4.979-23.904-15.671c-4.25-9.544-6.229-23.842-6.229-44.995c0-37.755,3.829-76.35,32.224-76.35
		c24.977,0,35.021,34.33,39.848,50.828l1.853,6.326v-57.021l-1.281,0.888c-3.669,2.54-7.043,3.724-10.619,3.724
		c-3.306,0-6.827-1.412-10.903-3.048c-5.602-2.247-11.952-4.794-20.152-4.794c-11.922,0-26.877,7.892-38.099,20.104
		c-9.799,10.665-21.48,29.364-21.48,57.878c0,36.853,30.117,65.437,56.025,65.437c10.434,0,16.596-2.805,22.033-5.279
		c4.255-1.937,7.93-3.609,12.89-3.609c3.271,0,6.237,1.328,10.58,4.739l1.321,1.037v-53.854L62.204,409.557z"/>
	<path d="M157.838,389.9c12.919-3.678,28.221-11.034,28.221-30.303c0-10.459-5.138-19.279-14.858-25.508
		c-8.929-5.721-21.358-8.872-34.997-8.872h-63.24v2.783h21.958v133.773H72.964v2.781h66.271c31.197,0,52.157-16.379,52.157-40.758
		C191.392,407.321,180.107,395.927,157.838,389.9z M141.118,388.373h-18.109v-60.372h5.562c22.578,0,32.016,4.027,32.016,28.984
		C160.586,383.519,154.03,388.373,141.118,388.373z M123.009,391.471h14.972c13.554,0,26.788,2.593,26.788,33.581
		c0,15.365-2.19,24.99-6.892,30.291c-3.985,4.493-9.931,6.326-20.523,6.326h-14.345V391.471z"/>
	<path d="M249.414,379.818c-16.772-5.593-32.614-10.875-32.614-29.316c0-7.331,2.183-24.383,22.396-24.383
		c25.617,0,35.988,41.438,35.988,48.327l0.218,1.579l1.625-0.119l-0.218-53.53l-1.411,1.538c-2.134,2.328-7.438,5.172-10.585,5.172
		c-2.087,0-4.879-0.989-8.112-2.134c-4.813-1.704-10.803-3.826-17.609-3.826c-11.069,0-21.106,5.335-28.261,15.022
		c-6.189,8.379-9.884,19.681-9.884,30.232c0,26.524,20.954,34.065,39.44,40.719c16.282,5.86,31.662,11.395,31.662,28.605
		c0,17.565-13.349,25.428-26.579,25.428c-13.159,0-24.277-8.081-33.044-24.019c-6.975-12.68-9.794-25.718-10.068-27.808
		l-0.941-4.913l-1.619,0.153v56.279l1.327-1.063c3.599-2.88,6.417-4.108,9.423-4.108c3.4,0,7.696,1.569,12.671,3.385
		c6.715,2.452,15.071,5.504,24.134,5.504c9.308,0,19.719-4.998,27.85-13.37c8.931-9.195,13.85-20.965,13.85-33.141
		C289.051,393.037,267.993,386.014,249.414,379.818z"/>
	<path d="M766.363,378.773c-16.772-5.593-32.614-10.876-32.614-29.318c0-7.33,2.183-24.381,22.396-24.381
		c23.925,0,35.885,39.098,35.885,48.325l0.217,1.58l1.625-0.114l0.11-53.481l-1.411,1.471c-2.252,2.35-7.528,5.187-10.703,5.187
		c-2.094,0-4.911-0.994-8.173-2.145c-4.819-1.699-10.816-3.814-17.55-3.814c-11.069,0-21.106,5.335-28.261,15.021
		c-6.189,8.379-9.884,19.681-9.884,30.232c0,26.526,20.954,34.067,39.441,40.721c16.282,5.859,31.66,11.394,31.66,28.603
		c0,17.47-13.831,25.428-26.683,25.428c-13.159,0-24.276-8.081-33.044-24.018c-6.972-12.673-9.796-25.718-10.071-27.809l-0.94-4.913
		l-1.619,0.153v56.277l1.327-1.061c3.601-2.878,6.42-4.106,9.425-4.106c3.399,0,7.695,1.569,12.67,3.385
		c6.715,2.451,15.072,5.501,24.135,5.501c9.308,0,19.719-4.997,27.85-13.37c8.932-9.194,13.85-20.963,13.85-33.137
		C806,391.993,784.942,384.97,766.363,378.773z"/>
	<path d="M-54.411,394.522c0,39.105-30.636,70.893-69.742,70.893c-38.896,0-69.847-31.787-69.847-70.893
		c0-38.793,30.95-70.579,69.847-70.579C-84.942,323.943-54.411,355.729-54.411,394.522L-54.411,394.522z M-188.98,394.522
		c9.829,20.703,32.937,40.988,64.932,40.988c31.787,0,55.104-20.285,64.933-40.988c-9.829-20.391-33.146-40.676-64.933-40.676
		C-156.044,353.847-179.152,374.132-188.98,394.522L-188.98,394.522z M-86.616,394.522c0,20.91-16.625,37.536-37.433,37.536
		c-20.807,0-37.642-16.626-37.642-37.536c0-20.6,16.834-37.434,37.642-37.434C-103.345,357.089-86.616,373.923-86.616,394.522
		L-86.616,394.522z"/>
	<path d="M445.914,324.382h-35.028c-0.823,0-1.444,0.599-1.444,1.392c0,0.794,0.621,1.392,1.444,1.392h15.81l0.1,87.091
		l-58.514-89.505l-0.241-0.369h-44.046c-1.039,0-1.601,0.717-1.601,1.392s0.562,1.392,1.601,1.392h16.02v133.457h-16.02
		c-1.039,0-1.601,0.718-1.601,1.393c0,0.676,0.562,1.393,1.601,1.393h34.82c1.039,0,1.601-0.717,1.601-1.393
		c0-0.675-0.562-1.393-1.601-1.393h-15.809V337.145l86.889,133.105V327.165h16.02c0.822,0,1.443-0.598,1.443-1.392
		C447.357,324.98,446.736,324.382,445.914,324.382z"/>
	<path d="M550.734,411.243c-0.355,0-1.182,0.195-1.182,1.994c0,6.874-3.499,18.891-11.18,29.032
		c-6.377,8.421-17.816,18.458-36.102,18.458h-14.346v-65.181h0.753c10.109,0,16.32,4.901,19.75,9.013
		c4.649,5.573,6.306,12.08,6.306,16.31c0,0.631,0,2.308,1.13,2.308s1.13-1.677,1.13-2.308v-54.056c0-0.552,0-2.229-1.13-2.229
		s-1.13,1.678-1.13,2.229c0,4.272-1.657,10.84-6.308,16.457c-3.429,4.141-9.638,9.076-19.748,9.076h-0.753v-65.078h8.907
		c29.007,0,46.76,30.612,46.76,47.281c0,1.748,0.985,1.836,1.183,1.836s1.183-0.088,1.183-1.836v-50.168H438.907
		c-1.04,0-1.602,0.717-1.602,1.392s0.562,1.392,1.602,1.392h21.141v133.355h-21.141c-0.809,0-1.432,0.518-1.514,1.26
		c-0.076,0.686,0.358,1.494,1.335,1.713l113.189,0.02v-50.275C551.918,411.438,551.091,411.243,550.734,411.243z"/>
	<path d="M728.75,324.382h-34.714c-1.039,0-1.6,0.717-1.6,1.392s0.561,1.392,1.6,1.392h16.261l-26.001,87.038l-27.104-87.038h13.736
		c0.823,0,1.445-0.598,1.445-1.392c0-0.793-0.622-1.392-1.445-1.392h-58.869c-1.039,0-1.6,0.717-1.6,1.392s0.561,1.392,1.6,1.392
		h13.725l10.936,35.052l-15.675,51.989l-26.907-87.041h11.65c1.039,0,1.6-0.717,1.6-1.392s-0.561-1.392-1.6-1.392h-58.66
		c-1.039,0-1.6,0.717-1.6,1.392s0.561,1.392,1.6,1.392h15.713l44.633,143.447l30.953-103.003l32.314,103.007l42.622-143.451h15.388
		c1.04,0,1.602-0.717,1.602-1.392S729.79,324.382,728.75,324.382z"/>
</g>
</svg>
