<svg xmlns="http://www.w3.org/2000/svg" viewBox="0 0 89.91 89.91"><defs><style>.a{fill:#ff4500;}.b{fill:#fff;}</style></defs><circle class="a" cx="44.96" cy="44.96" r="44.96"/><path class="b" d="M75,45a6.56,6.56,0,0,0-11.11-4.72A32.51,32.51,0,0,0,46.3,34.66l3-14.06,9.77,2.09a4.71,4.71,0,1,0,.48-2.25L48.66,18.13a1.16,1.16,0,0,0-.86.16,1,1,0,0,0-.48.76L44,34.71a32.48,32.48,0,0,0-17.81,5.58A6.55,6.55,0,1,0,18.94,51a11.51,11.51,0,0,0-.16,2C18.78,63,30.53,71.25,45,71.25S71.25,63.09,71.25,53a12,12,0,0,0-.17-2A6.61,6.61,0,0,0,75,45ZM30,49.62a4.67,4.67,0,1,1,4.67,4.67A4.67,4.67,0,0,1,30,49.62ZM56.12,62C52.9,65.24,46.78,65.45,45,65.45s-7.94-.27-11.1-3.43a1.21,1.21,0,0,1,1.71-1.72C37.66,62.34,42,63,45,63s7.4-.7,9.39-2.74a1.21,1.21,0,0,1,1.72,0A1.33,1.33,0,0,1,56.12,62Zm-.86-7.67a4.67,4.67,0,1,1,4.67-4.67A4.68,4.68,0,0,1,55.26,54.35Z"/></svg>