<svg xmlns="http://www.w3.org/2000/svg" viewBox="0 0 80.6 70.45"><defs><style>.a{fill:#231f20;}</style></defs><path class="a" d="M31.74,56l-9.41-8.12L15.16,56l-9.75-8.4V34.31H3.52a3,3,0,0,0-3,2.37H.34A10.6,10.6,0,0,1,0,34.11c0-1.76.47-6.36,5.41-6.36V16.11C5.41,13.87,2.78,13,2.78,10c0-3.86,3.65-7.65,10.35-10l.27.2C11,1.63,9.68,3,9.68,5.89,9.68,10.36,14,9.2,14,16.24V19l7.92-8.32,8.32,8.18,7.85-8.18,7.58,7.44v25ZM7.58,46.49V32.21H3.79a2.77,2.77,0,0,0-3,2.44l.07.07a3.34,3.34,0,0,1,2.91-1.15H6.16V47.24L15.09,55l1-1.22Zm0-31.06c0-2.77-2.44-3.72-2.44-5.48A10,10,0,0,1,7.58,3.59l-.14-.07c-2,1.56-3.92,4.06-3.92,6.5s2.64,3.58,2.64,5.75v12H7.58ZM21.86,22.2l-5.14-5L14,20v24l6.16,5.21,1.69-1.89ZM24,46.36V21.25l-5.75-5.68-1.08,1.08,5.41,5.21V47.1L31.74,55l1.08-1Zm13.13-25-4.26-4.06-2.44,2.5V43.85l6.64,5.82.06-.06Zm2.17-.95-4.94-4.8-1,1.08L37.9,21V49.27l1.42-1.36ZM68.76,55.63c-1.9-2-2.57-2.71-4.81-3.32V65.58l-.13.06-2.71-2.43-7.85,7.24-.14-.07V52.18a14.91,14.91,0,0,0-7.3,4.19l-.14-.07c.47-5.21,3-9.06,7.44-10.55V32.55H51.7c-2,0-3,1-4,2.84h-.2a10,10,0,0,1-.34-3.11,5.67,5.67,0,0,1,5.55-5.82h.4V19.15l-2.77-2.5L49,18l-.48-.47,6.84-7.24,6.36,5.82v6.16l1.49-1.63V12.86H64V20l9-9.67,7.65,7V46.7L68.76,55.63Zm-15.63-6a8.78,8.78,0,0,0-6,4.47l.07.13a13.06,13.06,0,0,1,6-2.91V49.67Zm2.16-19.42H51.57a3.33,3.33,0,0,0-3.65,3.52l.06.07a3.73,3.73,0,0,1,3.25-2h2.64V68.69l1.42-1.35Zm0-12.18L51.91,15l-1.09,1.15,3,2.7v7.65h1.42V18.07Zm7.92,3.86-1.49,1.55V62.67L63.21,64Zm8.86-1.56-4-3.65L64,21.18V45c3.52.34,6,1.36,8.06,3.66l.06-.07ZM64,49.67v1.76a7.73,7.73,0,0,1,4.88,3.11l1.55-1.21A8.76,8.76,0,0,0,64,49.67ZM74.24,19.29,69.64,15l-1.09,1.15,4.27,3.93V51.57l1.42-1.09Z"/></svg>