<?xml version="1.0" encoding="utf-8"?>
<!-- Generator: Adobe Illustrator 22.1.0, SVG Export Plug-In . SVG Version: 6.00 Build 0)  -->
<svg version="1.1" id="Layer_1" xmlns="http://www.w3.org/2000/svg" xmlns:xlink="http://www.w3.org/1999/xlink" x="0px" y="0px"
	 viewBox="0 0 108 108" style="enable-background:new 0 0 108 108;" xml:space="preserve">
<style type="text/css">
	.st0{fill:none;}
	.st1{fill:#002957;}
	.st2{fill:url(#SVGID_1_);}
</style>
<g>
	<g>
		<path class="st0" d="M53.9,0.1L53.9,0.1L53.9,0.1z"/>
		<path class="st1" d="M107.9,54.1L107.9,54.1L107.9,54.1L107.9,54.1L107.9,54.1c0-29.8-24.1-54-53.9-54l0,0h-7c-0.5,0-1,0.4-1,1
			c0,0,0,7.2-0.1,9.6c0,0.4-0.4,0.8-0.8,0.9c-1.6,0.3-3.2,0.8-4.7,1.3c-0.4,0.1-0.8,0-1.1-0.4l-5.6-7.9c-0.3-0.4-0.9-0.5-1.3-0.3
			l-10.7,6.2c-0.4,0.3-0.6,0.8-0.4,1.3l4.1,8.8c0.2,0.4,0.1,0.9-0.2,1.1c-1.2,1.1-2.4,2.2-3.5,3.4c-0.3,0.3-0.7,0.4-1.1,0.2
			l-8.8-4.1c-0.5-0.2-1,0-1.3,0.4L4.3,32.3c-0.3,0.5-0.2,1.1,0.3,1.4l7.9,5.6c0.3,0.2,0.5,0.7,0.4,1.1c-0.5,1.6-0.9,3.1-1.3,4.7
			c-0.1,0.4-0.4,0.7-0.9,0.8L1,46.8c-0.5,0-0.9,0.5-0.9,1V54l0,0v6.2c0,0.5,0.4,0.9,0.9,1l9.7,0.9c0.4,0,0.8,0.4,0.9,0.8
			c0.3,1.6,0.8,3.2,1.3,4.7c0.1,0.4,0,0.8-0.4,1.1l-7.9,5.6c-0.4,0.3-0.5,0.9-0.3,1.3l6.2,10.7c0.3,0.4,0.8,0.6,1.3,0.4l8.8-4.1
			c0.4-0.2,0.9-0.1,1.1,0.2c1.1,1.2,2.2,2.4,3.4,3.5c0.3,0.3,0.4,0.7,0.2,1.1l-4.1,8.8c-0.2,0.5,0,1,0.4,1.3l10.7,6.2
			c0.5,0.3,1.1,0.2,1.4-0.3l5.6-7.9c0.2-0.3,0.7-0.5,1.1-0.4c1.6,0.5,3.1,0.9,4.7,1.3c0.4,0.1,0.7,0.4,0.8,0.9l0.9,9.7
			c0,0.5,0.5,0.9,1,0.9h12.4c0.5,0,0.9-0.4,1-0.9l0.9-9.7c0-0.4,0.4-0.8,0.8-0.9c1.6-0.3,3.2-0.8,4.7-1.3c0.4-0.1,0.8,0,1.1,0.4
			l5.6,7.9c0.3,0.4,0.9,0.5,1.3,0.3l10.7-6.2c0.4-0.3,0.6-0.8,0.4-1.3l-4.1-8.8c-0.2-0.4-0.1-0.9,0.2-1.1c1.2-1.1,2.4-2.2,3.5-3.4
			c0.3-0.3,0.7-0.4,1.1-0.2l8.8,4.1c0.5,0.2,1,0,1.3-0.4l6.2-10.7c0.3-0.5,0.2-1.1-0.3-1.4l-7.9-5.6c-0.3-0.2-0.5-0.7-0.4-1.1
			c0.5-1.6,0.9-3.1,1.3-4.7c0.1-0.4,0.4-0.7,0.9-0.8h9.6c0.5-0.2,1-0.4,1-1V54.1L107.9,54.1z"/>
		<path class="st1" d="M107.9,54.1L107.9,54.1L107.9,54.1L107.9,54.1L107.9,54.1L107.9,54.1z"/>
	</g>
	<g>
		
			<linearGradient id="SVGID_1_" gradientUnits="userSpaceOnUse" x1="59.05" y1="23.6906" x2="59.05" y2="98.8044" gradientTransform="matrix(1 0 0 -1 0 110.2)">
			<stop  offset="0" style="stop-color:#008145"/>
			<stop  offset="0.193" style="stop-color:#00924C"/>
			<stop  offset="0.432" style="stop-color:#3FA554"/>
			<stop  offset="0.6539" style="stop-color:#66B55A"/>
			<stop  offset="0.8501" style="stop-color:#7CC05F"/>
			<stop  offset="1" style="stop-color:#84C661"/>
		</linearGradient>
		<path class="st2" d="M57.7,11.4c-0.5,0-0.9,0.4-0.9,0.9v8.4c0,0.6-0.5,1.1-1.1,1.1h-2.8c-9.7,0.3-18.3,4.8-24,11.8
			c-1.3,1.6-2.5,3.3-3.5,5.2c-1,1.8-1.8,3.8-2.5,5.8c-0.9,3-1.5,6.3-1.5,9.6l0,0l0,0l0,0c0,17.9,14.5,32.4,32.4,32.4l0,0l0,0l0,0
			c10.4,0,18.9-8.5,18.9-18.9c0-7.4-6.1-13.5-13.5-13.5c-5.2,0-9.5,4.2-9.5,9.5c0,3.5,2.9,6.4,6.4,6.4c2,0,3.7-1.5,4.1-3.4
			c0.1-0.4,0.5-0.7,0.9-0.6c2.8,0.6,4,4.2,2,6.4c-1.7,1.9-4.2,3-7,3c-6.5,0-11.8-5.3-11.8-11.8c0-8.2,6.7-14.9,14.9-14.9
			c4.8,0,9.2,1.8,12.6,4.8c0.5,0.4,1.1,0.6,1.7,0.6h22.2c0.6,0,1-0.5,1-1C96.3,31.1,79.2,13.3,57.7,11.4z M80.7,48.8
			c-3.3,0-5.9-2.7-5.9-5.9c0-3.3,2.7-5.9,5.9-5.9c3.3,0,5.9,2.7,5.9,5.9C86.6,46.2,83.9,48.8,80.7,48.8z"/>
	</g>
</g>
</svg>
