<?xml version="1.0" encoding="iso-8859-1"?>
<!-- Generator: Adobe Illustrator 19.0.0, SVG Export Plug-In . SVG Version: 6.00 Build 0)  -->
<svg version="1.1" id="Capa_1" xmlns="http://www.w3.org/2000/svg" xmlns:xlink="http://www.w3.org/1999/xlink" x="0px" y="0px"
	 viewBox="0 0 513.13 513.13" style="enable-background:new 0 0 513.13 513.13;" xml:space="preserve">
<path style="fill:#2196F3;" d="M489.628,282.261c1.08-8.934,1.621-17.924,1.621-26.923
	C490.427,125.794,384.891,21.366,255.345,21.909c-8.99,0.093-17.966,0.727-26.88,1.899C158.522-19.895,66.393,1.376,22.69,71.319
	C-7.859,120.21-7.538,182.319,23.516,230.891c-1.071,8.927-1.606,17.91-1.6,26.901c0.811,129.544,106.337,233.983,235.883,233.451
	c8.997-0.094,17.98-0.728,26.901-1.899c69.955,43.684,162.078,22.387,205.762-47.569
	C520.985,392.897,520.66,330.818,489.628,282.261z M257.457,427.328c-82.816,0.427-128.256-48.661-128.384-74.005v-10.667
	c-0.131-17.673,14.089-32.105,31.761-32.237c16.756-0.124,30.771,12.698,32.132,29.399c8.341,16.405,37.931,23.637,64.213,23.467
	c2.624,0,64-0.832,63.765-43.008c0-20.373-27.221-28.565-71.872-39.659c-53.717-13.376-120.491-29.973-120.875-98.048
	c-0.469-86.059,66.517-96.341,116.821-96.619c71.296-0.363,117.483,28.715,117.717,74.048c0.145,17.673-14.064,32.117-31.736,32.262
	c-16.151,0.133-29.869-11.791-31.987-27.803c-15.996-11.334-35.557-16.488-55.061-14.507c-12.708-0.834-25.459,0.729-37.589,4.608
	c-6.656,2.965-14.272,8.789-14.187,27.733c0,15.829,32.192,24.597,66.133,33.877c56.213,15.339,126.165,34.453,126.528,103.787
	c0.405,64.747-49.6,106.88-127.36,107.285L257.457,427.328z"/>
<g>
</g>
<g>
</g>
<g>
</g>
<g>
</g>
<g>
</g>
<g>
</g>
<g>
</g>
<g>
</g>
<g>
</g>
<g>
</g>
<g>
</g>
<g>
</g>
<g>
</g>
<g>
</g>
<g>
</g>
</svg>
