<?xml version="1.0" encoding="utf-8"?>
<!-- Generator: Adobe Illustrator 14.0.0, SVG Export Plug-In . SVG Version: 6.00 Build 43363)  -->
<!DOCTYPE svg PUBLIC "-//W3C//DTD SVG 1.1//EN" "http://www.w3.org/Graphics/SVG/1.1/DTD/svg11.dtd">
<svg version="1.1" id="Layer_1" xmlns="http://www.w3.org/2000/svg" xmlns:xlink="http://www.w3.org/1999/xlink" x="0px" y="0px"
	 width="auto" height="auto" viewBox="0 0 24 24" enable-background="new 0 0 24 24" xml:space="preserve">
<path fill="none" d="M0,0h24v24H0V0z"/>
<path fill="#FFFFFF" d="M17.811,4.47c-0.08,0-0.16-0.02-0.23-0.06C15.66,3.42,14,3,12.01,3c-1.98,0-3.86,0.47-5.57,1.41
	C6.2,4.54,5.9,4.45,5.76,4.21c-0.13-0.24-0.04-0.55,0.2-0.68C7.82,2.52,9.86,2,12.01,2c2.131,0,3.99,0.47,6.03,1.52
	c0.25,0.13,0.34,0.43,0.21,0.67C18.16,4.37,17.99,4.47,17.811,4.47z M3.5,9.72c-0.1,0-0.2-0.03-0.29-0.09
	c-0.23-0.16-0.28-0.47-0.12-0.7c0.99-1.4,2.25-2.5,3.75-3.27C9.98,4.04,14,4.03,17.15,5.65c1.5,0.77,2.76,1.86,3.75,3.25
	c0.16,0.22,0.109,0.54-0.121,0.7C20.55,9.76,20.24,9.71,20.08,9.48c-0.9-1.26-2.04-2.25-3.391-2.94C13.82,5.07,10.15,5.07,7.29,6.55
	c-1.36,0.7-2.5,1.7-3.4,2.96C3.81,9.65,3.66,9.72,3.5,9.72z M9.75,21.79c-0.13,0-0.26-0.05-0.35-0.149
	C8.53,20.77,8.06,20.21,7.39,19c-0.69-1.23-1.05-2.73-1.05-4.34c0-2.97,2.54-5.39,5.66-5.39s5.66,2.42,5.66,5.39
	c0,0.279-0.221,0.5-0.5,0.5c-0.28,0-0.5-0.221-0.5-0.5c0-2.42-2.09-4.39-4.66-4.39c-2.57,0-4.66,1.97-4.66,4.39
	c0,1.439,0.32,2.77,0.93,3.85c0.64,1.15,1.08,1.641,1.85,2.42c0.19,0.2,0.19,0.51,0,0.711C10.01,21.74,9.88,21.79,9.75,21.79z
	 M16.92,19.939c-1.189,0-2.24-0.299-3.1-0.89c-1.49-1.01-2.38-2.649-2.38-4.39c0-0.28,0.22-0.5,0.5-0.5c0.28,0,0.5,0.22,0.5,0.5
	c0,1.41,0.72,2.74,1.94,3.56c0.71,0.48,1.54,0.71,2.54,0.71c0.24,0,0.641-0.029,1.04-0.1c0.271-0.05,0.53,0.13,0.58,0.41
	c0.05,0.27-0.13,0.529-0.41,0.58C17.561,19.93,17.061,19.939,16.92,19.939z M14.91,22c-0.04,0-0.09-0.01-0.131-0.02
	c-1.59-0.44-2.629-1.03-3.719-2.101c-1.4-1.39-2.17-3.239-2.17-5.22c0-1.62,1.38-2.94,3.08-2.94c1.7,0,3.08,1.32,3.08,2.94
	c0,1.07,0.931,1.939,2.08,1.939s2.08-0.869,2.08-1.939c0-3.77-3.25-6.83-7.25-6.83c-2.84,0-5.44,1.58-6.61,4.03
	c-0.39,0.81-0.59,1.76-0.59,2.8c0,0.779,0.07,2.01,0.67,3.609c0.1,0.261-0.03,0.551-0.29,0.641c-0.26,0.1-0.55-0.04-0.64-0.29
	c-0.49-1.31-0.73-2.61-0.73-3.96c0-1.2,0.23-2.29,0.68-3.24c1.33-2.79,4.28-4.6,7.51-4.6c4.55,0,8.25,3.51,8.25,7.831
	c0,1.619-1.38,2.939-3.08,2.939s-3.08-1.32-3.08-2.939c0-1.07-0.93-1.94-2.08-1.94c-1.15,0-2.08,0.87-2.08,1.94
	c0,1.709,0.66,3.31,1.87,4.51c0.95,0.939,1.86,1.46,3.27,1.85c0.271,0.07,0.421,0.35,0.351,0.61C15.33,21.85,15.12,22,14.91,22z"/>
</svg>
