<?xml version="1.0" encoding="utf-8"?>
<!DOCTYPE svg PUBLIC "-//W3C//DTD SVG 1.1//EN" "http://www.w3.org/Graphics/SVG/1.1/DTD/svg11.dtd">
<svg version="1.1" id="Layer_1" xmlns="http://www.w3.org/2000/svg" xmlns:xlink="http://www.w3.org/1999/xlink" x="0px" y="0px"
	 width="auto" height="auto" viewBox="0 0 612 792" enable-background="new 0 0 612 792" xml:space="preserve">
<g>
	<g>
		<g>
			<path fill="#FFFFFF" d="M305.433,90.566L305.433,90.566L305.433,90.566z"/>
			<path fill="#FFFFFF" d="M611.434,396.566L611.434,396.566L611.434,396.566L611.434,396.566L611.434,396.566L611.434,396.566z"/>
		</g>
		<g>
			<path fill="#FFFFFF" d="M611.434,396.566L611.434,396.566L611.434,396.566L611.434,396.566L611.434,396.566L611.434,396.566z"/>
			<path fill="#FFFFFF" d="M456.733,299.667c-18.7,0-33.434,15.3-33.434,33.434c0,18.7,15.3,33.433,33.434,33.433
				c18.7,0,33.434-15.3,33.434-33.433C490.733,314.4,475.434,299.667,456.733,299.667z"/>
			<path fill="#FFFFFF" d="M611.434,396.566L611.434,396.566L611.434,396.566L611.434,396.566L611.434,396.566
				c0-168.866-136.567-306-305.434-306h-39.667c-2.833,0-5.667,2.267-5.667,5.667c0,0,0,40.8-0.566,54.4
				c0,2.267-2.267,4.533-4.533,5.1c-9.067,1.7-18.134,4.533-26.634,7.367c-2.267,0.566-4.533,0-6.233-2.267l-31.733-44.767
				c-1.7-2.267-5.1-2.833-7.367-1.7L122.967,149.5c-2.267,1.7-3.4,4.533-2.267,7.367l23.233,49.867
				c1.133,2.267,0.566,5.1-1.134,6.233c-6.8,6.233-13.6,12.467-19.833,19.267c-1.7,1.7-3.967,2.267-6.233,1.133l-49.867-23.233
				c-2.833-1.133-5.667,0-7.367,2.267l-35.133,60.633c-1.7,2.833-1.133,6.233,1.7,7.934L70.833,312.7
				c1.7,1.133,2.833,3.966,2.267,6.233C70.267,328,68,336.5,65.733,345.566c-0.567,2.267-2.267,3.967-5.1,4.534l-54.967,5.1
				c-2.833,0-5.1,2.833-5.1,5.667V396l0,0v35.134c0,2.833,2.267,5.1,5.1,5.666l54.967,5.101c2.267,0,4.533,2.267,5.1,4.533
				c1.7,9.066,4.533,18.133,7.367,26.633c0.566,2.267,0,4.533-2.267,6.233l-44.767,31.733c-2.267,1.7-2.833,5.1-1.7,7.367
				L59.5,579.033c1.7,2.267,4.533,3.4,7.367,2.267l49.867-23.233c2.267-1.133,5.1-0.566,6.233,1.134
				c6.233,6.8,12.466,13.6,19.267,19.833c1.7,1.7,2.267,3.967,1.133,6.233l-23.233,49.866c-1.133,2.834,0,5.667,2.267,7.367
				l60.633,35.133c2.833,1.7,6.233,1.134,7.934-1.699l31.733-44.767c1.133-1.7,3.966-2.834,6.233-2.267
				c9.067,2.833,17.567,5.1,26.633,7.366c2.267,0.566,3.967,2.267,4.534,5.1l5.1,54.967c0,2.834,2.833,5.101,5.667,5.101h70.266
				c2.834,0,5.101-2.267,5.667-5.101l5.101-54.967c0-2.267,2.267-4.533,4.533-5.1c9.066-1.7,18.133-4.533,26.633-7.366
				c2.267-0.567,4.533,0,6.233,2.267l31.733,44.767c1.7,2.267,5.1,2.833,7.367,1.699l60.633-35.133c2.267-1.7,3.4-4.533,2.267-7.367
				l-23.233-49.866c-1.133-2.267-0.566-5.1,1.134-6.233c6.8-6.233,13.6-12.467,19.833-19.267c1.7-1.7,3.967-2.267,6.233-1.134
				l49.866,23.233c2.834,1.134,5.667,0,7.367-2.267l35.133-60.633c1.7-2.834,1.134-6.233-1.699-7.934L541.167,479.3
				c-1.7-1.133-2.834-3.967-2.267-6.233c2.833-9.066,5.1-17.566,7.366-26.633c0.566-2.267,2.267-3.967,5.1-4.533h54.4
				c2.833-1.134,5.667-2.268,5.667-5.667V396.566L611.434,396.566z M542.867,396.566H417.066c-3.399,0-6.8-1.133-9.633-3.4
				c-18.7-17-43.634-27.2-71.4-27.2c-46.466,0-84.433,37.967-84.433,84.434c0,36.833,30.033,66.866,66.867,66.866
				c15.866,0,29.467-6.8,39.667-17C370.033,487.8,362.667,467.4,346.8,464c-2.267-0.566-5.1,1.133-5.1,3.4
				c-1.7,10.767-11.334,19.267-23.233,19.267c-19.833,0-36.267-16.434-36.267-36.267c0-29.467,23.8-53.834,53.833-53.834
				c41.934,0,76.5,34.566,76.5,76.5c0,58.934-48.167,107.101-107.1,107.101l0,0l0,0l0,0c-101.433,0-183.6-82.167-183.6-183.601l0,0
				l0,0l0,0c0-19.267,2.833-37.4,8.5-54.4c3.4-11.333,8.5-22.667,14.167-32.867c5.667-10.2,12.467-20.4,19.833-29.466
				c32.3-39.667,81.033-65.167,136-66.867H316.2c3.399,0,6.233-2.833,6.233-6.233v-47.6c0-2.833,2.267-5.1,5.1-5.1
				c122.4,10.767,218.733,111.633,222.134,235.733C548.533,393.733,546.267,396.566,542.867,396.566z"/>
		</g>
	</g>
</g>
</svg>
